<svg width="439" height="421" viewBox="0 0 439 421" fill="none" xmlns="http://www.w3.org/2000/svg">
<g clip-path="url(#clip0_501_561)">
<path d="M386.215 420.194C414.296 420.194 437.06 408.108 437.06 393.199C437.06 378.289 414.296 366.203 386.215 366.203C358.135 366.203 335.371 378.289 335.371 393.199C335.371 408.108 358.135 420.194 386.215 420.194Z" fill="#EBEBEB"/>
<path d="M61.293 249.512C87.9974 249.512 109.646 238.018 109.646 223.84C109.646 209.661 87.9974 198.167 61.293 198.167C34.5886 198.167 12.9404 209.661 12.9404 223.84C12.9404 238.018 34.5886 249.512 61.293 249.512Z" fill="#EBEBEB"/>
<path d="M137.591 290.375C164.296 290.375 185.944 278.881 185.944 264.702C185.944 250.524 164.296 239.03 137.591 239.03C110.887 239.03 89.2388 250.524 89.2388 264.702C89.2388 278.881 110.887 290.375 137.591 290.375Z" fill="#EBEBEB"/>
<path d="M214.859 331.909C241.564 331.909 263.212 320.415 263.212 306.237C263.212 292.058 241.564 280.564 214.859 280.564C188.155 280.564 166.507 292.058 166.507 306.237C166.507 320.415 188.155 331.909 214.859 331.909Z" fill="#EBEBEB"/>
<path d="M293.421 373.012C320.125 373.012 341.774 361.518 341.774 347.339C341.774 333.161 320.125 321.667 293.421 321.667C266.717 321.667 245.068 333.161 245.068 347.339C245.068 361.518 266.717 373.012 293.421 373.012Z" fill="#EBEBEB"/>
<path d="M404.641 380.358C407.165 377.615 413.963 375.131 422.472 374.604C430.981 374.076 439.605 373.127 438.395 368.466C437.092 363.441 429.459 362.194 421.502 364.026C412.816 366.021 405.548 372.878 404.683 377.673L404.641 380.358Z" fill="#5050DB"/>
<path d="M404.756 378.689C404.868 378.703 404.982 378.688 405.085 378.646C405.188 378.604 405.276 378.536 405.34 378.449C413.536 367.296 428.478 367.296 432.994 368.543C433.069 368.565 433.148 368.573 433.227 368.567C433.306 368.56 433.382 368.54 433.452 368.506C433.522 368.472 433.584 368.425 433.634 368.369C433.684 368.313 433.722 368.248 433.744 368.179C433.79 368.039 433.774 367.888 433.7 367.759C433.626 367.629 433.499 367.532 433.348 367.488C428.572 366.155 412.931 366.136 404.339 377.845C404.254 377.968 404.224 378.117 404.255 378.26C404.286 378.402 404.376 378.529 404.505 378.612C404.583 378.653 404.668 378.679 404.756 378.689Z" fill="white"/>
<path d="M404.641 380.358C404.641 380.358 410.845 366.51 422.055 360.113C425.381 358.195 429 355.76 431.523 354.072C436.935 350.447 435.694 345.556 429.094 344.76C419.292 343.59 410.95 350.217 406.299 359.711C401.648 369.205 404.641 380.358 404.641 380.358Z" fill="#5050DB"/>
<path d="M404.735 373.769C404.879 373.79 405.027 373.76 405.149 373.686C405.27 373.611 405.357 373.497 405.392 373.367C409.803 356.402 425.444 349.651 429.469 349.248C429.546 349.241 429.621 349.22 429.688 349.186C429.756 349.152 429.816 349.106 429.865 349.051C429.913 348.995 429.949 348.932 429.971 348.864C429.993 348.795 429.999 348.724 429.99 348.653C429.972 348.512 429.894 348.384 429.773 348.296C429.652 348.208 429.497 348.167 429.344 348.183C424.464 348.663 408.791 355.74 404.255 373.117C404.237 373.186 404.233 373.257 404.244 373.327C404.256 373.397 404.282 373.465 404.322 373.525C404.361 373.586 404.414 373.639 404.476 373.68C404.538 373.722 404.608 373.753 404.683 373.769H404.735Z" fill="white"/>
<path d="M407.853 214.816C412.847 213.732 416.09 217.606 419.323 224.827C422.555 232.049 428.28 249.637 429.615 254.461C430.22 256.618 415.34 275.961 415.976 275.674C416.174 275.587 410.167 266.352 410.167 266.352L417.467 253.502L412.253 241.821L407.853 214.816Z" fill="#FFA8A7"/>
<path d="M414.954 377.845C415.632 378.085 415.799 379.264 415.903 381.624C415.976 383.417 416.393 386.534 414.12 387.157C411.847 387.78 408.52 387.454 407.06 385.776C405.236 383.676 404.005 381.825 401.419 379.264C399.167 377.04 396.727 374.959 395.819 371.842C394.996 369.022 395.684 367.804 397.769 366.98C400.647 365.858 405.163 369.54 407.415 370.116C409.354 370.566 414.276 377.557 414.954 377.845Z" fill="#263238"/>
<path d="M414.954 374.009V378.536C413.772 379.234 412.405 379.621 411.001 379.657C409.597 379.692 408.209 379.374 406.987 378.737C406.852 378.459 406.456 374.009 406.456 374.009H414.954Z" fill="#FFA8A7"/>
<path d="M391.513 393.189C391.513 393.189 392.41 395.702 392.9 397.907C393.286 399.662 393.838 402.587 393.171 403.901C392.504 405.215 389.907 406.068 385.872 406.04C383.265 406.04 379.188 407.66 376.403 409.089C373.619 410.518 370.397 410.576 367.352 410.24C363.765 409.856 360.053 407.938 359.469 406.577C358.885 405.215 359.636 404.553 368.093 401.235C368.166 401.235 377.008 397.533 381.096 393.381L391.513 393.189Z" fill="#263238"/>
<path d="M391.513 390.063C391.513 390.063 391.513 392.211 391.513 393.438C391.513 394.666 389.938 396.498 385.861 396.363C382.993 396.267 380.981 395.558 381.095 393.39V390.255L391.513 390.063Z" fill="#FFA8A7"/>
<path d="M420.23 340.53C419.97 330.94 417.832 326.778 417.832 326.778C417.832 326.778 418.624 314.973 420.355 300.531C422.983 278.522 421.774 274.264 417.05 264.357C417.05 264.357 376.779 260.608 375.559 275.999C374.026 295.179 373.838 329.157 374.401 335.927C374.964 342.698 374.943 341.442 376.727 355.107C378.145 365.944 381.064 390.216 381.064 390.216C382.686 390.974 384.486 391.353 386.304 391.32C388.123 391.286 389.905 390.841 391.492 390.024C391.492 390.024 394.777 359.202 394.433 351.396C394.015 341.854 393.39 339.428 393.39 339.428C393.39 339.428 398.103 311.243 398.833 306.265C398.833 306.265 399.49 315.165 400.043 321.936C400.595 328.706 400.543 331.468 402.128 345.469C403.348 356.45 406.299 375.198 406.299 375.198C407.715 375.728 409.245 375.949 410.77 375.846C412.295 375.743 413.773 375.318 415.09 374.604C415.09 374.604 420.481 348.26 420.23 340.53Z" fill="#DD4919"/>
<path d="M387.227 209.829L389.114 224.137L402.795 223.005L401.231 207.115L387.227 209.829Z" fill="#FFA8A7"/>
<path d="M416.142 221.73C414.641 217.971 411.189 214.058 405.934 214.921C404.557 215.161 403.358 215.343 402.065 215.583C401.951 218.872 395.193 220.579 388.457 218.584C386.434 219.121 384.578 219.658 382.899 220.215C378.082 221.797 376.153 229.152 376.038 241.456C375.923 253.76 374.516 284.458 374.516 284.458L380.146 286.088L382.774 277.102L383.817 287.862C390.214 289.234 396.872 289.204 403.254 287.776C417.727 284.899 422.222 277.687 422.222 277.687C419.836 269.004 415.953 260.729 410.72 253.175C417.978 235.463 418.374 227.282 416.142 221.73Z" fill="#5050DB"/>
<path d="M377.06 191.646C376.24 189.937 375.906 188.065 376.088 186.205C376.271 184.344 376.964 182.557 378.103 181.011C382.691 174.384 391.544 173.253 402.086 175.832C405.748 176.866 408.973 178.914 411.323 181.696C413.672 184.478 415.031 187.859 415.214 191.378C415.715 198.455 394.255 203.672 394.745 208.515L377.06 191.646Z" fill="#263238"/>
<path d="M376.601 194.341C376.601 194.341 373.682 198.628 374.099 199.069C374.82 199.48 375.614 199.772 376.445 199.932L376.601 194.341Z" fill="#5050DB"/>
<path d="M385.475 180.733C382.566 182.21 377.55 184.933 376.528 194.955C375.486 205.245 378.072 208.755 379.657 210.059C380.699 210.941 386.017 211.143 388.749 210.279C392.18 209.205 399.573 205.619 402.931 200.239C406.873 193.9 407.488 185.576 402.618 182.44C395.757 178.028 387.905 179.486 385.475 180.733Z" fill="#FFA8A7"/>
<path d="M385.465 181.951C383.765 185.717 382.71 189.702 382.336 193.765C380.996 193.778 379.663 193.58 378.395 193.18C378.395 193.18 378.343 188.865 379.604 186.41C378.394 188.388 377.614 190.564 377.31 192.816C375.96 192.714 374.668 192.269 373.577 191.531C372.534 186.918 375.663 177.405 384.578 175.89L385.465 181.951Z" fill="#263238"/>
<path d="M384.62 181.183C384.62 181.183 382.326 190.61 385.58 196.451C385.58 196.451 387.269 192.749 390.72 193.717C394.172 194.686 393.995 198.906 391.357 201.131C390.682 201.763 389.828 202.209 388.891 202.416C387.954 202.623 386.973 202.583 386.059 202.301C387.221 204.963 388.96 207.381 391.169 209.407C391.169 209.407 401.367 213.588 410.199 204.42C418.218 196.105 416.727 181.596 404.454 178.182C392.18 174.768 384.62 181.183 384.62 181.183Z" fill="#263238"/>
<path d="M418.572 202.425C420.992 204.784 420.533 208.793 417.53 211.382C414.527 213.972 410.168 214.163 407.749 211.814C405.329 209.464 405.788 205.437 408.791 202.847C411.795 200.258 416.143 200.066 418.572 202.425Z" fill="#263238"/>
<path d="M414.381 198.302C413.774 198.482 413.27 198.876 412.979 199.397C412.688 199.918 412.633 200.524 412.827 201.083L417.405 199.73C417.208 199.173 416.78 198.709 416.213 198.442C415.647 198.174 414.988 198.123 414.381 198.302Z" fill="#263238"/>
<path d="M348.28 242.876C346.288 240.795 345.965 236.163 343.316 233.017C340.668 229.872 341.148 226.65 339.49 228.069C337.832 229.488 339.072 234.696 339.072 234.696C339.072 234.696 335.996 239.951 335.725 242.636C335.454 245.321 343.212 252.082 343.212 252.082L348.28 242.876Z" fill="#FFA8A7"/>
<path d="M339.49 234.331C339.49 234.331 336.361 238.359 322.242 233.094C318.343 231.646 320.97 239.356 325.757 242.55C330.178 245.503 335.715 246.386 340.147 249.176C340.157 248.783 339.49 234.331 339.49 234.331Z" fill="#FFA8A7"/>
<path d="M384.099 219.831C380.074 221.116 376.559 222.612 372.806 229.095C367.978 237.438 359.25 253.76 359.25 253.76L348.28 242.876C348.28 242.876 346.685 240.814 343.723 245.312C340.762 249.809 342.076 251.066 342.076 251.066C342.076 251.066 354.797 266.726 357.123 268.721C359.448 270.715 363.296 269.162 365.798 266.036C368.301 262.909 381.241 241.341 381.241 241.341C381.241 241.341 389.782 227.714 384.099 219.831Z" fill="#FFA8A7"/>
<path opacity="0.2" d="M398.885 306.304L399.646 298.824C404.013 298.223 408.189 296.764 411.888 294.547C411.888 294.547 409.271 298.383 402.096 300.157L400.47 307.445L400.053 321.974L398.885 306.304Z" fill="#5050DB"/>
<path d="M375.861 249.953C375.861 249.953 380.918 241.811 381.241 241.322L375.454 261.969L375.861 249.953Z" fill="#263238"/>
<path d="M315.85 201.112C317.331 202.541 320.845 203.643 343.598 205.168C346.91 205.465 350.252 205.061 353.369 203.989C356.439 202.875 359.076 200.941 360.939 198.436C361.378 197.885 361.703 197.264 361.899 196.604C362.076 195.953 361.967 195.264 361.596 194.686C361.149 194.142 360.506 193.761 359.782 193.612C358.349 193.313 356.848 193.462 355.517 194.034C353.431 194.782 351.805 195.041 351.961 194.648C352.117 194.255 353.39 193.9 354.693 192.548C355.997 191.196 356.33 189.297 355.486 188.712C354.641 188.127 354.787 188.251 353.285 189.402C351.784 190.553 350.053 191.138 348.072 192.903C346.819 194.214 345.237 195.225 343.463 195.847C341.179 196.681 339.021 196.432 332.681 195.501C327.206 194.696 325.1 194.408 322.472 193.066C319.646 189.115 312.826 172.418 309.865 167.844C306.737 163.001 300.376 162.857 300.376 162.857C300.433 168.82 301.517 174.737 303.588 180.388C305.777 186.046 314.38 199.702 315.85 201.112Z" fill="#B16668"/>
<path d="M298.655 162.31C301.275 161.91 303.965 162.347 306.278 163.548C309.729 165.542 311.982 169.234 314.161 173.857C316.831 179.476 320.042 186.995 320.042 186.995C316.94 189.77 312.885 191.465 308.572 191.79L298.301 176.091L298.655 162.31Z" fill="#5050DB"/>
<path d="M274.369 342.391H283.233V328.438H274.369V342.391Z" fill="#B16668"/>
<path d="M298.895 331.948L307.758 332.226L308.196 317.467L298.895 317.179V331.948Z" fill="#B16668"/>
<path d="M270.595 224.243C270.595 232.03 272.096 277.304 272.096 277.304C271.888 279.538 269.542 283.518 269.364 291.593C269.093 303.293 273.994 335.41 273.994 335.41C275.524 336.102 277.2 336.476 278.904 336.508C280.609 336.539 282.3 336.227 283.859 335.592C283.859 335.592 287.884 292.044 289.469 280.469C290.856 270.361 293.202 242.905 293.202 242.905L297.373 275.894C296.345 280.144 295.973 284.505 296.267 288.85C296.685 294.211 298.353 327.373 298.353 327.373C299.898 328.177 301.616 328.659 303.386 328.783C305.155 328.907 306.933 328.672 308.593 328.093C308.593 328.093 314.849 280.814 314.943 275.894C315.058 270.294 312.628 213.099 312.628 213.099L270.595 224.243Z" fill="#5050DB"/>
<path d="M276.424 166.981C274.474 167.778 272.94 169.244 272.148 171.066C271.241 173.32 270.802 175.711 270.855 178.115V194.082L270.595 224.242C283.316 230.409 299.489 230.821 313.066 221.701C313.066 221.701 312.305 182.89 312.305 176.542C312.305 176.254 312.305 175.967 312.305 175.669C311.804 166.597 302.096 160.325 292.493 162.636L284.463 164.554L276.403 167L276.424 166.981Z" fill="#F0F0F0"/>
<path d="M307.796 145.202C312.552 140.828 312.552 133.736 307.796 129.361C303.039 124.987 295.328 124.987 290.572 129.361C285.815 133.736 285.815 140.828 290.572 145.202C295.328 149.576 303.039 149.576 307.796 145.202Z" fill="#263238"/>
<path d="M278.124 145.24C278.124 145.24 280.094 153.766 280.887 155.175C281.414 156.039 282.285 156.682 283.316 156.969L283.181 150.975L278.124 145.24Z" fill="#263238"/>
<path d="M280.595 133.023C279.906 132.949 279.207 133.021 278.553 133.234C277.899 133.447 277.306 133.794 276.82 134.25C275.194 135.775 276.101 140.56 278.124 145.24L281.836 145.634L280.595 133.023Z" fill="#263238"/>
<path d="M282.951 145.633C282.211 146.046 281.147 144.732 280.23 143.84C279.312 142.948 276.309 141.749 274.808 144.655C273.306 147.561 276.132 151.512 278.488 152.193C282.566 153.373 283.181 150.975 283.181 150.975L283.473 164.89C288.541 170.865 302.587 170.356 296.737 164.123V160.009C298.549 160.277 300.388 160.364 302.222 160.268C305.214 159.846 307.102 157.669 308.009 154.686C309.469 149.891 310.021 146.055 308.791 136.619C307.425 126.3 294.38 126.185 287.331 130.27C280.282 134.356 282.951 145.633 282.951 145.633Z" fill="#B16668"/>
<path d="M282.952 146.794C282.576 146.794 281.158 144.617 280.23 143.84C278.937 142.766 280.595 133.023 280.595 133.023C280.258 132.179 280.197 131.264 280.417 130.388C280.637 129.513 281.13 128.715 281.836 128.094C283.598 126.31 285.517 125.217 290.595 124.938C294.077 124.923 297.557 125.074 301.023 125.389C306.038 125.696 307.884 124.564 310.772 123.816C312.973 123.251 313.223 130.529 307.644 132.994C307.644 132.994 305.83 134.068 301.064 134.605C296.659 134.904 292.232 134.827 287.842 134.375C286.466 134.202 286.174 135.43 285.423 138.796C284.756 141.759 284.213 146.727 282.952 146.794Z" fill="#263238"/>
<path d="M280.605 133.78L276.101 131.555C276.244 131.276 276.448 131.027 276.7 130.823C276.952 130.618 277.246 130.463 277.564 130.366C277.883 130.27 278.22 130.233 278.555 130.26C278.889 130.286 279.214 130.374 279.51 130.52C280.113 130.83 280.563 131.342 280.767 131.949C280.971 132.556 280.913 133.211 280.605 133.78Z" fill="#263238"/>
<path d="M296.726 160.009C296.726 160.009 290.042 158.772 287.707 157.631C286.331 156.972 285.204 155.945 284.474 154.687C284.826 155.945 285.45 157.126 286.309 158.158C288.019 160.162 296.737 161.649 296.737 161.649L296.726 160.009Z" fill="#9A4A4D"/>
<path d="M296.393 144.099C296.38 144.339 296.292 144.57 296.138 144.765C295.984 144.959 295.772 145.107 295.527 145.191C295.282 145.275 295.016 145.292 294.761 145.238C294.507 145.184 294.275 145.063 294.094 144.889C293.914 144.716 293.793 144.497 293.746 144.261C293.699 144.024 293.729 143.78 293.832 143.559C293.934 143.338 294.105 143.15 294.323 143.018C294.541 142.885 294.797 142.814 295.058 142.814C295.238 142.816 295.415 142.852 295.58 142.918C295.745 142.984 295.894 143.08 296.018 143.199C296.142 143.319 296.239 143.46 296.304 143.615C296.368 143.769 296.398 143.934 296.393 144.099Z" fill="#263238"/>
<path d="M294.974 139.448L292.107 140.906C291.905 140.544 291.862 140.124 291.986 139.734C292.11 139.343 292.392 139.011 292.774 138.806C292.963 138.71 293.172 138.651 293.387 138.632C293.601 138.613 293.818 138.634 294.024 138.694C294.229 138.754 294.42 138.852 294.583 138.981C294.747 139.111 294.88 139.27 294.974 139.448Z" fill="#263238"/>
<path d="M296.142 152.605L299.197 153.67C299.134 153.862 299.029 154.04 298.888 154.193C298.747 154.347 298.574 154.472 298.379 154.562C298.184 154.652 297.971 154.704 297.753 154.715C297.535 154.727 297.317 154.698 297.112 154.629C296.695 154.475 296.36 154.177 296.179 153.799C295.998 153.421 295.984 152.992 296.142 152.605Z" fill="#9A4A4D"/>
<path d="M307.957 140.474L305.339 138.623C305.461 138.46 305.619 138.321 305.801 138.216C305.984 138.111 306.188 138.041 306.401 138.012C306.614 137.982 306.832 137.993 307.04 138.044C307.249 138.094 307.443 138.184 307.613 138.307C307.961 138.559 308.19 138.924 308.254 139.327C308.318 139.731 308.212 140.141 307.957 140.474Z" fill="#263238"/>
<path d="M307.154 143.744C307.17 143.915 307.148 144.087 307.088 144.25C307.028 144.413 306.932 144.562 306.806 144.688C306.68 144.815 306.527 144.916 306.356 144.985C306.185 145.054 306.001 145.09 305.814 145.09C305.627 145.09 305.443 145.054 305.272 144.985C305.101 144.916 304.948 144.815 304.822 144.688C304.696 144.562 304.6 144.413 304.54 144.25C304.48 144.087 304.458 143.915 304.474 143.744C304.468 143.579 304.499 143.415 304.563 143.261C304.628 143.107 304.725 142.967 304.849 142.848C304.974 142.729 305.123 142.634 305.287 142.569C305.452 142.504 305.629 142.47 305.809 142.469C305.988 142.471 306.165 142.506 306.33 142.572C306.495 142.637 306.644 142.732 306.769 142.85C306.893 142.969 306.992 143.109 307.058 143.262C307.124 143.415 307.157 143.579 307.154 143.744Z" fill="#263238"/>
<path d="M300.324 142.584L300.762 149.987L304.974 148.674L300.324 142.584Z" fill="#9A4A4D"/>
<path d="M283.233 338.363V337.203C284.078 337.539 286.049 344.453 289.573 347.407C292.368 349.747 296.184 352.461 297.154 355.079C298.124 357.697 291.836 359.298 289.229 358.915C286.195 358.416 280.887 356.45 279.615 354.628C278.343 352.806 277.675 350.121 276.601 348.788C275.527 347.455 273.056 345.959 272.43 344.415C272.117 343.571 272.493 341.71 272.941 340.137C273.39 338.565 273.796 337.117 274.328 337.26V338.143C275.588 339.059 277.154 339.547 278.76 339.524C280.094 339.485 283.244 339.274 283.233 338.363Z" fill="#263238"/>
<path d="M307.852 329.713C308.311 329.713 308.686 330.327 309.698 331.334C311.213 332.745 312.976 333.912 314.912 334.786C318.228 336.311 324.682 338.622 327.602 339.879C329.427 340.636 329.343 342.66 327.456 343.81C325.569 344.961 321.022 345.796 315.548 344.674C312.576 344.06 308.697 341.528 306.246 341.662C303.796 341.797 299.197 341.768 297.383 340.617C295.569 339.466 296.34 337.021 296.809 334.911C297.373 332.619 298.071 329.032 298.895 329.157V329.953C299.938 331.43 305.464 332.034 307.8 330.912L307.852 329.713Z" fill="#263238"/>
<path d="M293.202 242.905C297.779 241.591 301.987 239.368 305.527 236.393C305.527 236.393 303.15 240.498 296.059 244.314L297.008 273.084L293.202 242.905Z" fill="#263238"/>
<path d="M256.163 207.498C261.846 176.906 267.633 167.604 277.195 167.288C280.136 170.213 279.865 179.476 275.777 185.269C275.777 185.269 267.018 204.708 265.819 211.536C264.776 217.529 263.619 225.058 263.984 230.159C264.065 231.059 264.498 231.901 265.204 232.528C267.091 234.235 267.175 235.664 268.436 237.582C269.427 239.088 270.449 239.615 270.188 239.98C269.835 240.364 269.337 240.611 268.794 240.673C268.251 240.736 267.703 240.608 267.258 240.315C266.39 239.797 265.607 239.167 264.933 238.445C265.348 240.323 266.05 242.138 267.018 243.835C269.25 247.901 268.885 250.049 262.68 248.85C258.801 248.093 256.236 245.264 255.204 236.825C254.762 233.718 254.56 230.587 254.599 227.455C254.953 219.38 255.266 212.313 256.163 207.498Z" fill="#B16668"/>
<path d="M279.521 166.041C276.622 166.53 269.187 166.77 265.37 173.838C262.868 178.489 260.344 185.777 257.644 194.504C257.644 194.504 263.222 199.817 271.45 199.059L276.059 186.842C280.428 181.644 281.544 169.954 279.521 166.041Z" fill="#5050DB"/>
<path d="M226.737 163.989C218.635 133.982 209.375 127.019 218.03 122.972C226.925 122.176 231.513 127.01 233.056 135.621C233.817 139.841 235.465 157.141 237.529 163.921C239.354 169.877 241.794 177.3 244.505 181.855C244.994 182.66 245.788 183.272 246.737 183.571C249.271 184.406 250.022 185.7 252.076 186.976C253.692 187.935 254.881 188.059 254.808 188.491C254.665 188.987 254.322 189.414 253.85 189.686C253.378 189.958 252.811 190.056 252.263 189.958C251.22 189.818 250.203 189.547 249.239 189.153C250.486 190.723 251.968 192.125 253.64 193.315C257.602 196.192 258.259 198.34 251.972 199.663C248.03 200.488 244.349 198.887 239.458 191.493C237.601 188.795 235.956 185.978 234.537 183.063C231.137 175.497 228.04 168.86 226.737 163.989Z" fill="#FFA8A7"/>
<path d="M198.781 297.817V296.656C199.281 298.018 201.596 303.897 205.11 306.841C207.905 309.191 211.711 311.895 212.68 314.513C213.65 317.131 207.383 318.138 204.766 317.716C201.742 317.227 197.821 315.645 195.684 313.228C194.182 311.531 193.223 309.526 192.149 308.193C191.075 306.86 188.614 305.364 187.978 303.82C187.665 302.976 188.04 301.116 188.489 299.553C188.937 297.989 189.344 296.522 189.875 296.676V297.558C191.139 298.468 192.702 298.955 194.307 298.939C195.652 298.958 198.791 298.728 198.781 297.817Z" fill="#263238"/>
<path d="M207.634 308.903C206.768 308.193 205.903 307.503 205.11 306.831C202.66 304.779 200.783 301.288 199.709 298.9C199.096 297.545 198.78 296.091 198.781 294.623V289.982H189.928V297.529V297.73C190.355 299.418 194.422 303.916 196.727 306.85C198.27 308.816 201.21 311.319 204.724 311.751C208.103 312.192 209.803 311.223 207.634 308.903Z" fill="#FFA8A7"/>
<path d="M233.317 289.79V288.658C233.807 290.02 236.132 295.899 239.636 298.843C242.43 301.193 246.247 303.897 247.206 306.515C248.165 309.133 241.909 310.14 239.302 309.718C236.268 309.229 232.347 307.647 230.209 305.23C228.708 303.533 227.759 301.528 226.685 300.195C225.611 298.862 223.139 297.366 222.566 295.822C222.243 294.978 222.618 293.118 223.066 291.555C223.515 289.991 223.921 288.534 224.464 288.678V289.56C225.723 290.47 227.283 290.957 228.885 290.941C230.178 290.931 233.327 290.701 233.317 289.79Z" fill="#263238"/>
<path d="M242.17 300.876C241.304 300.166 240.428 299.476 239.636 298.814C237.185 296.752 235.319 293.261 234.245 290.874C233.631 289.518 233.315 288.065 233.317 286.596V281.945H224.464V289.493V289.694C224.891 291.382 228.948 295.88 231.263 298.814C232.806 300.78 235.746 303.283 239.261 303.715C242.629 304.165 244.328 303.197 242.17 300.876Z" fill="#FFA8A7"/>
<path d="M191.69 171.287C184.829 185.068 191.94 233.622 191.94 233.622C191.732 235.856 188.947 240.267 187.915 250.107C186.685 261.739 189.834 290.96 189.834 290.96C191.183 291.68 192.704 292.086 194.263 292.143C195.822 292.2 197.373 291.906 198.781 291.286C198.781 291.286 207.216 247.287 208.801 235.722C210.188 225.624 212.847 203.423 212.847 203.423L220.397 235.664C219.293 238.917 218.495 242.25 218.009 245.628C217.29 252.428 224.464 284.113 224.464 284.113C224.464 284.113 227.519 285.139 233.317 284.353C233.317 284.353 235.851 242.32 236.518 234.12C237.634 220.359 233.661 177.405 230.918 169.254L191.69 171.287Z" fill="#DD4919"/>
<path opacity="0.1" d="M212.847 203.432L215.079 190.63C215.079 190.63 224.463 188.836 228.78 185.135C228.78 185.135 224.297 190.275 217.633 191.953L215.131 201.811L219.5 231.655L212.847 203.432Z" fill="#5050DB"/>
<path d="M203.796 123.385C194.995 123.941 194.411 127.854 192.18 132.131C190.564 135.422 190.414 139.164 191.763 142.555L197.894 158.858C195.395 162.821 193.318 166.996 191.69 171.325C207.081 179.217 226.288 175.065 230.918 169.301C231.116 168.084 229.927 158.522 229.187 152.279C231.898 146.027 232.618 142.066 231.471 137.894C229.385 130.222 221.116 122.752 217.467 123.02L203.796 123.385Z" fill="#F5F5F5"/>
<path d="M214.255 115.952H207.769C205.62 115.961 203.489 115.58 201.5 114.832C199.511 114.083 197.701 112.981 196.175 111.589C194.649 110.197 193.436 108.543 192.605 106.719C191.775 104.896 191.343 102.94 191.335 100.963C191.313 96.1808 193.357 91.5859 197.017 88.1888C200.678 84.7918 205.655 82.8707 210.856 82.8478C213.431 82.8377 215.984 83.2943 218.368 84.1915C220.752 85.0888 222.92 86.409 224.749 88.077C226.578 89.7449 228.032 91.7278 229.028 93.9125C230.024 96.0972 230.542 98.441 230.553 100.81C230.567 102.789 230.156 104.751 229.344 106.584C228.532 108.417 227.334 110.085 225.82 111.491C224.306 112.898 222.505 114.016 220.521 114.781C218.536 115.547 216.407 115.945 214.255 115.952Z" fill="#263238"/>
<path d="M205.778 78.6379C208.583 82.4738 205.611 85.0248 201.481 87.6045C197.352 90.1842 193.65 91.7569 190.845 87.9689C188.04 84.1809 189.584 79.9421 193.713 77.4199C197.842 74.8978 202.983 74.8498 205.778 78.6379Z" fill="#263238"/>
<path d="M195.684 90.3761L191.513 93.1955C191.299 92.9537 191.141 92.6748 191.048 92.3754C190.955 92.076 190.929 91.7624 190.97 91.4534C191.012 91.1444 191.122 90.8464 191.292 90.5772C191.462 90.308 191.69 90.0732 191.961 89.887C192.528 89.5052 193.235 89.3427 193.931 89.4341C194.627 89.5255 195.256 89.8636 195.684 90.3761Z" fill="#263238"/>
<path d="M222.983 90.9131C225.068 92.0255 227.644 96.8109 227.435 106.861C227.258 115.377 224.307 117.487 222.764 118.101C221.221 118.714 218.353 118.36 215.527 117.938L215.694 123.107C215.694 123.107 220.449 126.693 220.22 129.033C219.99 131.373 213.619 132.457 209.948 130.184C207.556 128.654 205.341 126.903 203.337 124.958C203.243 124.86 203.191 124.734 203.191 124.603V111.714C203.191 111.714 201.533 113.21 198.708 110.947C196.372 109.086 195.579 105.931 197.373 104.234C197.841 103.828 198.407 103.531 199.024 103.367C199.642 103.202 200.293 103.176 200.924 103.289C201.555 103.403 202.148 103.653 202.652 104.019C203.157 104.385 203.56 104.856 203.828 105.394C203.828 105.394 208.343 105.528 214.328 102.469C216.657 101.305 218.655 99.6515 220.159 97.6435C221.663 95.6356 222.63 93.3296 222.983 90.9131Z" fill="#FFA8A7"/>
<path d="M217.091 104.761C217.095 104.972 217.032 105.179 216.908 105.356C216.785 105.534 216.608 105.674 216.398 105.76C216.189 105.846 215.957 105.873 215.731 105.838C215.505 105.803 215.295 105.708 215.127 105.564C214.96 105.42 214.842 105.235 214.788 105.03C214.735 104.825 214.748 104.61 214.826 104.412C214.904 104.214 215.044 104.041 215.228 103.916C215.412 103.79 215.632 103.717 215.861 103.706C216.176 103.698 216.481 103.804 216.711 104.002C216.941 104.199 217.078 104.472 217.091 104.761Z" fill="#263238"/>
<path d="M217.436 111.973L220.147 112.759C220.098 112.926 220.013 113.082 219.897 113.218C219.781 113.354 219.637 113.468 219.472 113.552C219.308 113.636 219.127 113.689 218.94 113.707C218.754 113.726 218.565 113.71 218.384 113.661C218.021 113.544 217.721 113.305 217.544 112.991C217.368 112.677 217.329 112.312 217.436 111.973Z" fill="#5050DB"/>
<path d="M226.622 101.433L224.255 99.9468C224.352 99.7992 224.482 99.6715 224.635 99.5716C224.788 99.4716 224.961 99.4015 225.145 99.3656C225.329 99.3297 225.518 99.3287 225.702 99.3626C225.886 99.3966 226.061 99.4649 226.215 99.5632C226.529 99.7685 226.747 100.076 226.822 100.424C226.898 100.772 226.826 101.133 226.622 101.433Z" fill="#263238"/>
<path d="M226.09 103.956C226.092 104.166 226.026 104.372 225.902 104.548C225.777 104.725 225.599 104.864 225.39 104.948C225.18 105.032 224.948 105.058 224.723 105.022C224.498 104.986 224.289 104.89 224.122 104.746C223.956 104.602 223.839 104.416 223.786 104.211C223.733 104.007 223.747 103.792 223.825 103.595C223.904 103.397 224.044 103.225 224.228 103.1C224.412 102.975 224.631 102.902 224.86 102.891C225.176 102.883 225.483 102.991 225.713 103.19C225.944 103.39 226.079 103.665 226.09 103.956Z" fill="#263238"/>
<path d="M220.845 102.824L220.814 109.805L224.495 108.741L220.845 102.824Z" fill="#5050DB"/>
<path d="M215.527 117.957C212.545 117.602 206.413 116.039 205.454 113.785C205.832 114.927 206.586 115.932 207.613 116.662C209.448 118.091 215.579 119.712 215.579 119.712L215.527 117.957Z" fill="#5050DB"/>
<path d="M207.728 172.811C206.523 172.556 205.386 172.083 204.383 171.418C203.38 170.754 202.531 169.912 201.886 168.942C201.241 167.972 200.814 166.894 200.628 165.77C200.442 164.646 200.502 163.499 200.804 162.397C200.847 162.244 200.899 162.093 200.96 161.946C201.17 161.349 201.593 160.834 202.161 160.486C202.729 160.137 203.408 159.976 204.088 160.028C203.157 159.371 202.377 158.55 201.793 157.613C201.21 156.677 200.835 155.643 200.689 154.571L198.374 144.531C198.151 142.866 198.311 141.177 198.843 139.573L192.66 132.994L191.523 133.723C190.584 136.61 190.671 139.698 191.773 142.536L197.905 158.839C195.368 162.784 193.289 166.962 191.7 171.306C196.707 173.782 202.232 175.241 207.904 175.585C213.576 175.929 219.262 175.15 224.579 173.301C218.979 174.123 213.26 173.957 207.728 172.811Z" fill="#E0E0E0"/>
<path d="M204.38 196.882L182.002 185.087C182.002 185.087 171.116 198.839 178.53 202.723C185.944 206.607 193.295 210.567 200.678 214.49C209.041 211.517 204.38 196.882 204.38 196.882Z" fill="#5050DB"/>
<path d="M200.678 198.839L183.17 189.527V190.419L200.678 199.826V198.839Z" fill="#DD4919"/>
<path d="M204.38 196.882C202.941 201.198 198.613 213.425 200.688 214.528C202.764 215.631 209.176 211.833 209.031 209.541C208.666 203.087 204.38 196.882 204.38 196.882Z" fill="#5050DB"/>
<path d="M198.197 123.346C199.112 123.263 200.033 123.449 200.826 123.878C201.619 124.308 202.243 124.958 202.607 125.734C206.184 131.987 203.723 196.547 203.723 196.547L201.304 195.271C201.304 195.271 202.149 174.461 202.065 155.511C202.003 141.596 201.44 128.458 200.793 127.029C200.484 126.206 199.88 125.505 199.081 125.04C198.281 124.574 197.333 124.373 196.393 124.468C196.586 124.172 196.848 123.917 197.159 123.723C197.471 123.53 197.825 123.401 198.197 123.346Z" fill="#263238"/>
<path d="M175.944 163.989C182.785 138.268 188.092 127.23 195.579 124.67C196.14 124.47 196.742 124.388 197.342 124.43C197.941 124.472 198.523 124.637 199.044 124.913C199.565 125.189 200.012 125.569 200.353 126.024C200.694 126.48 200.919 127 201.012 127.547C201.658 132.737 200.263 137.969 197.081 142.296C197.081 142.296 187.102 161.668 185.506 168.553C184.109 174.576 182.534 182.152 182.618 187.35C182.639 188.287 183.032 189.184 183.723 189.872C185.558 191.694 185.558 193.161 186.747 195.175C187.665 196.748 188.676 197.343 188.395 197.688C188.016 198.066 187.495 198.297 186.938 198.336C186.381 198.376 185.828 198.219 185.391 197.899C184.541 197.329 183.779 196.655 183.129 195.895C183.438 197.82 184.041 199.696 184.922 201.466C187.008 205.715 186.476 207.882 180.24 206.367C176.33 205.408 173.879 202.425 173.295 193.785C173.005 190.595 172.97 187.389 173.191 184.195C174.057 176.034 174.651 168.832 175.944 163.989Z" fill="#FFA8A7"/>
<path d="M171.366 127.547C171.992 121.927 171.992 119.549 171.804 118.849C170.949 115.655 168.53 113.095 165.986 109.259C161.627 102.613 155.037 92.2364 152.002 88.2278C149.604 85.0823 147.018 83.241 143.066 83.4328C140.313 83.5767 142.451 93.5982 145.151 100.819L159.698 119.28C160.177 119.883 160.396 120.628 160.313 121.371L158.895 134.528L163.535 140.234C163.535 140.234 170.563 134.71 171.366 127.547Z" fill="#FFA8A7"/>
<path d="M171.45 126.741C171.241 125.782 170.511 124.929 168.603 124.996C166.695 125.063 165.204 127.326 165.204 127.326L170.584 129.522C170.866 128.87 171.137 128.199 171.366 127.528C171.398 127.259 171.429 127 171.45 126.741Z" fill="#5050DB"/>
<path d="M141.471 83.337C141.471 83.337 147.446 82.6465 150.762 85.9646C154.078 89.2828 155.694 92.0543 158.906 96.9547C162.774 102.862 164.453 105.893 164.453 105.893C164.453 105.893 158.405 113.325 149.489 112.356L141.471 83.337Z" fill="#5050DB"/>
<path d="M151.8 65.5881C156.626 61.1502 156.626 53.9548 151.8 49.5168C146.975 45.0789 139.151 45.0789 134.325 49.5168C129.5 53.9548 129.5 61.1502 134.325 65.5881C139.151 70.0261 146.975 70.0261 151.8 65.5881Z" fill="#263238"/>
<path d="M113.483 263.504H122.19V249.8H113.483V263.504Z" fill="#FFA8A7"/>
<path d="M143.66 253.914L152.357 254.192L152.795 239.692L144.098 239.423L143.66 253.914Z" fill="#FFA8A7"/>
<path d="M114.056 141.193C114.056 148.865 113.014 195.156 113.014 195.156C112.805 197.352 110.574 201.409 111.053 209.857C111.71 221.365 112.795 251.152 112.795 251.152C112.795 251.152 116.872 254.873 122.628 251.152C122.628 251.152 130.511 209.915 132.075 198.522C133.431 188.596 135.746 161.639 135.746 161.639L140.563 199.04C140.563 199.04 139.145 206.501 138.832 211.766C138.519 217.031 143.556 243.748 143.556 243.748C144.965 244.56 146.58 245.018 148.241 245.077C149.902 245.135 151.551 244.793 153.024 244.084C153.024 244.084 156.778 203.336 157.675 198.58C158.572 193.823 154.786 141.174 154.786 141.174L114.056 141.193Z" fill="#EBEBEB"/>
<path d="M122.419 85.9071C120.566 86.2064 118.852 87.0038 117.491 88.1985C116.131 89.3933 115.186 90.9318 114.776 92.6201C114.295 94.6164 114.053 96.6553 114.056 98.7001V141.184C120.156 147.293 141.429 150.141 154.724 141.184C154.724 141.184 154.463 103.658 153.472 97.4918C151.731 86.7798 146.173 82.9629 140.563 83.3561L127.122 85.1303L122.419 85.9071Z" fill="#DD4919"/>
<path d="M121.71 65.6243C121.71 65.6243 123.712 74.2552 124.515 75.7033C125.051 76.5787 125.932 77.2311 126.976 77.5254L126.84 71.4358L121.71 65.6243Z" fill="#263238"/>
<path d="M124.223 53.234C123.523 53.1607 122.813 53.2348 122.148 53.4508C121.483 53.6668 120.881 54.0189 120.386 54.4807C118.738 56.0246 119.666 60.8772 121.71 65.6242L125.485 66.027L124.223 53.234Z" fill="#263238"/>
<path d="M126.611 66.0271C125.861 66.4491 124.787 65.0681 123.848 64.2146C122.91 63.3611 119.875 62.0856 118.353 65.0298C116.83 67.9739 119.698 71.9921 122.086 72.7017C126.257 73.9005 126.841 71.455 126.841 71.455L127.154 85.1591C128.067 86.9971 129.461 88.5983 131.212 89.8199C132.962 91.0415 135.014 91.8454 137.185 92.1598C144.484 93.0709 143.003 87.5182 140.595 84.7947V80.6326C142.435 80.9009 144.302 80.9877 146.163 80.8916C149.197 80.46 151.106 78.2543 152.034 75.2335C153.514 70.3714 154.119 66.4491 152.816 56.8975C151.439 46.4348 138.217 46.3485 131.053 50.4626C123.89 54.5767 126.611 66.0271 126.611 66.0271Z" fill="#FFA8A7"/>
<path d="M126.611 67.197C126.236 67.197 124.786 65.0009 123.848 64.2145C122.544 63.1213 124.223 53.234 124.223 53.234C123.882 52.3787 123.819 51.4502 124.043 50.5627C124.268 49.6752 124.769 48.8671 125.485 48.2376C127.268 46.4251 130.261 46.2238 135.36 45.4949C138.029 45.1017 142.086 44.4208 144.745 43.9605C147.935 43.4139 150.574 42.8385 152.826 44.6414C153.71 45.3435 154.335 46.2804 154.615 47.3231C154.895 48.3658 154.817 49.4627 154.39 50.4625C154.162 50.9198 153.856 51.3407 153.483 51.7092C152.875 52.3741 152.082 52.8746 151.189 53.1573C151.189 53.1573 149.802 54.2985 144.932 54.8356C140.464 55.1444 135.975 55.0674 131.523 54.6054C130.125 54.4328 129.823 55.6795 129.072 59.0935C128.446 62.0952 127.894 67.1779 126.611 67.197Z" fill="#263238"/>
<path d="M124.234 54.0011L119.667 51.7858C119.81 51.5021 120.016 51.2483 120.27 51.0401C120.524 50.8318 120.822 50.6735 121.145 50.5747C121.468 50.476 121.81 50.4389 122.149 50.4658C122.488 50.4926 122.818 50.5828 123.118 50.7309C123.721 51.0432 124.173 51.5553 124.38 52.1628C124.587 52.7704 124.535 53.4278 124.234 54.0011Z" fill="#263238"/>
<path d="M140.584 80.6133C140.584 80.6133 133.806 79.357 131.429 78.1966C130.036 77.5274 128.895 76.4882 128.154 75.2141C128.515 76.49 129.15 77.6866 130.021 78.7336C131.752 80.7667 140.584 82.2723 140.584 82.2723V80.6133Z" fill="#5050DB"/>
<path d="M138.957 64.4734C138.974 64.6469 138.951 64.8217 138.89 64.9867C138.829 65.1517 138.732 65.3032 138.604 65.4317C138.476 65.5602 138.32 65.6627 138.147 65.7329C137.973 65.8031 137.786 65.8393 137.596 65.8393C137.407 65.8393 137.22 65.8031 137.046 65.7329C136.873 65.6627 136.717 65.5602 136.589 65.4317C136.461 65.3032 136.364 65.1517 136.303 64.9867C136.242 64.8217 136.219 64.6469 136.236 64.4734C136.232 64.3063 136.263 64.1402 136.329 63.9845C136.395 63.8288 136.494 63.6867 136.62 63.5664C136.746 63.446 136.897 63.3498 137.064 63.2833C137.23 63.2167 137.41 63.1812 137.591 63.1787C137.958 63.1863 138.307 63.3263 138.563 63.5685C138.818 63.8108 138.96 64.1358 138.957 64.4734Z" fill="#263238"/>
<path d="M137.508 59.7552L134.609 61.2321C134.399 60.8659 134.352 60.4387 134.478 60.0412C134.605 59.6437 134.895 59.3072 135.287 59.1031C135.478 59.0063 135.689 58.9464 135.906 58.9269C136.123 58.9074 136.342 58.9289 136.55 58.9899C136.758 59.0509 136.95 59.1502 137.115 59.2818C137.279 59.4134 137.413 59.5745 137.508 59.7552Z" fill="#263238"/>
<path d="M139.969 73.1045L143.097 74.169C143.032 74.3602 142.926 74.5375 142.785 74.6901C142.644 74.8427 142.471 74.9676 142.276 75.0572C142.082 75.1467 141.869 75.1992 141.652 75.2113C141.434 75.2235 141.217 75.1951 141.011 75.128C140.583 74.9849 140.233 74.6922 140.038 74.3133C139.843 73.9345 139.818 73.5001 139.969 73.1045Z" fill="#5050DB"/>
<path d="M151.074 60.791L148.415 58.873C148.54 58.7087 148.7 58.5696 148.886 58.4641C149.071 58.3586 149.278 58.289 149.493 58.2594C149.709 58.2297 149.929 58.2408 150.14 58.2919C150.35 58.343 150.548 58.433 150.72 58.5565C151.083 58.8134 151.323 59.1904 151.39 59.6076C151.456 60.0248 151.343 60.4493 151.074 60.791Z" fill="#263238"/>
<path d="M150.25 64.1187C150.238 64.3625 150.148 64.5976 149.992 64.7949C149.836 64.9923 149.62 65.1431 149.372 65.2287C149.123 65.3143 148.853 65.3309 148.594 65.2765C148.335 65.2221 148.1 65.099 147.916 64.9226C147.733 64.7462 147.61 64.5241 147.562 64.284C147.515 64.0438 147.545 63.7962 147.649 63.5717C147.754 63.3472 147.927 63.1558 148.148 63.0212C148.37 62.8866 148.629 62.8147 148.895 62.8145C149.077 62.8182 149.256 62.8549 149.423 62.9225C149.59 62.99 149.74 63.0872 149.866 63.2083C149.992 63.3294 150.091 63.4721 150.157 63.6283C150.223 63.7846 150.254 63.9512 150.25 64.1187Z" fill="#263238"/>
<path d="M143.327 62.9294L143.775 70.448L148.04 69.1054L143.327 62.9294Z" fill="#5050DB"/>
<path d="M122.19 259.553V258.412C123.024 258.747 124.953 265.527 128.446 268.424C131.199 270.725 134.943 273.391 135.892 275.952C136.841 278.512 130.678 280.104 128.113 279.682C125.13 279.193 119.969 277.266 118.728 275.482C117.487 273.698 116.82 271.051 115.766 269.728C114.713 268.404 112.284 266.956 111.71 265.441C111.397 264.607 111.773 262.785 112.211 261.241C112.649 259.697 113.055 258.268 113.577 258.364V259.236C114.818 260.127 116.351 260.604 117.925 260.589C119.114 260.675 122.2 260.445 122.19 259.553Z" fill="#263238"/>
<path d="M152.451 251.727C152.899 251.727 153.264 252.322 154.265 253.319C155.752 254.705 157.483 255.85 159.385 256.705C162.638 258.21 168.978 260.541 171.898 261.701C173.692 262.439 173.598 264.434 171.752 265.537C169.906 266.64 165.433 267.455 160.063 266.381C157.133 265.777 153.327 263.293 150.918 263.427C148.509 263.561 144.004 263.533 142.221 262.401C140.438 261.269 141.178 258.872 141.658 256.8C142.211 254.547 142.993 251.046 143.806 251.238V251.958C144.849 253.406 150.177 254 152.471 252.917L152.451 251.727Z" fill="#263238"/>
<path d="M135.714 161.639C140.212 160.349 144.348 158.169 147.831 155.252C147.831 155.252 145.485 159.28 138.54 163.02L140.532 199.059L135.714 161.639Z" fill="#E0E0E0"/>
<path d="M100.584 153.229C100.863 156.861 101.385 160.473 102.148 164.046C104.755 173.291 108.092 176.062 112.576 176.331C119.677 176.772 119.719 174.327 116.538 170.117C115.15 168.28 114.094 166.25 113.41 164.104C114.452 164.904 115.598 165.583 116.82 166.127C117.365 166.388 117.996 166.45 118.589 166.303C119.182 166.156 119.693 165.809 120.021 165.331C120.25 164.89 118.978 164.449 117.654 162.924C115.923 161.006 115.037 159.424 112.638 157.803C111.84 157.081 111.332 156.131 111.199 155.108C110.845 153.795 110.595 132.831 111.888 128.496L117.988 108.357C122.962 105.221 128.248 89.7047 120.699 86.4058C113.608 87.1442 108.436 95.6697 100.709 122.004C99.2702 126.636 99.7811 146.055 100.584 153.229Z" fill="#FFA8A7"/>
<path d="M122.19 85.9934C123.161 86.7868 123.938 87.7619 124.466 88.8534C124.995 89.945 125.264 91.1278 125.256 92.3227C125.454 96.715 123.17 103.044 121.867 107.005C120.563 110.966 117.696 118.129 117.696 118.129C117.696 118.129 106.027 116.902 103.368 110.601C103.368 110.601 108.843 94.2983 114.098 89.043C115.101 87.9968 116.353 87.1774 117.756 86.6485C119.16 86.1196 120.677 85.8954 122.19 85.9934Z" fill="#5050DB"/>
<path d="M169.969 120.632L169.041 119.904C168.903 119.819 168.744 119.767 168.579 119.75C168.414 119.733 168.247 119.753 168.092 119.808L158.123 122.301C157.621 122.453 157.161 122.703 156.774 123.034C156.387 123.365 156.083 123.769 155.882 124.219L148.697 143.265C148.613 143.419 148.581 143.592 148.605 143.763C148.629 143.934 148.708 144.095 148.833 144.224L149.781 144.981V144.348H149.854L159.834 141.855C160.336 141.703 160.796 141.453 161.183 141.122C161.57 140.791 161.875 140.387 162.076 139.937C163.483 136.187 167.842 124.593 169.26 120.882C169.298 120.773 169.323 120.66 169.333 120.546L169.969 120.632Z" fill="#5050DB"/>
<path d="M149.583 144.022L156.757 124.967C156.959 124.518 157.264 124.114 157.651 123.784C158.038 123.453 158.498 123.202 158.999 123.049L168.978 120.556C169.906 120.326 170.396 120.815 170.084 121.639C168.676 125.389 164.317 136.983 162.909 140.695C162.706 141.143 162.4 141.545 162.014 141.876C161.627 142.207 161.168 142.458 160.668 142.613L150.688 145.106C149.76 145.336 149.27 144.809 149.583 144.022Z" fill="#263238"/>
<path d="M167.164 129.311C166.465 131.229 163.952 132.543 159.865 133.444C155.777 134.346 153.462 138.364 154.129 139.592C154.797 140.819 161.429 141.951 164.109 141.606C166.788 141.26 169.458 137.712 170.261 136.619C171.064 135.526 172.013 127.863 171.158 126.818C170.815 126.496 170.398 126.249 169.938 126.095C169.478 125.941 168.986 125.883 168.499 125.926L167.164 129.311Z" fill="#FFA8A7"/>
<path d="M90.6463 101.654L65.005 88.1704C65.005 88.1704 52.4919 103.946 61.0217 108.405C69.5514 112.865 77.956 117.391 86.4128 121.889C96.0061 118.427 90.6463 101.654 90.6463 101.654Z" fill="#DD4919"/>
<path opacity="0.2" d="M90.6463 101.654L65.005 88.1704C65.005 88.1704 52.4919 103.946 61.0217 108.405C69.5514 112.865 77.956 117.391 86.4128 121.889C96.0061 118.427 90.6463 101.654 90.6463 101.654Z" fill="#5050DB"/>
<path d="M86.4132 103.898L69.4893 94.9026V95.9287L86.4132 105.02V103.898Z" fill="#263238"/>
<path d="M90.6467 101.654C88.9992 106.612 84.0356 120.623 86.4131 121.889C88.7906 123.155 96.1525 118.801 96.0065 116.135C95.579 108.76 90.6467 101.654 90.6467 101.654Z" fill="#DD4919"/>
<path d="M52.8467 0.604248H56.1522C61.0749 0.604248 65.796 2.4027 69.2769 5.60398C72.7577 8.80526 74.7133 13.1471 74.7133 17.6744V53.9437H34.2856V17.6744C34.2856 13.1471 36.2412 8.80526 39.7221 5.60398C43.2029 2.4027 47.924 0.604248 52.8467 0.604248Z" fill="#263238"/>
<path d="M90.8969 83.5383C93.3161 81.4669 92.3255 79.0502 88.9679 72.4235C85.6102 65.7969 77.6227 50.4721 75.6206 47.1827C72.1273 41.4287 68.0293 41.141 61.8666 41.1602C59.3849 41.1602 65.6727 47.7006 68.509 54.0395C71.0637 59.7935 81.0221 78.5419 81.0221 78.5419L90.8969 83.5383Z" fill="#B16668"/>
<path d="M51.5121 232.078C50.6258 231.349 49.729 230.629 48.9157 229.949C46.3922 227.839 44.4735 224.252 43.3682 221.807C42.7409 220.411 42.4184 218.915 42.4193 217.405V212.61H33.3682V220.359V220.57H33.4203C33.8583 222.305 38.0293 226.928 40.3963 229.939C41.9813 231.962 45.0053 234.533 48.6133 234.974C51.9814 235.405 53.7332 234.408 51.5121 232.078Z" fill="#B16668"/>
<path d="M77.7788 219.313C78.0317 219.177 78.2517 218.994 78.4253 218.776C79.1344 217.884 78.5713 217.395 78.0603 216.686C77.4342 215.691 76.9106 214.644 76.4962 213.559C76.0791 212.6 75.5264 210.912 75.5264 210.912C75.5264 210.912 75.5264 209.656 75.5264 209.158V204.363H66.4336V212.332C66.9028 214.183 68.7381 215.986 69.9477 217.462C70.8757 218.604 73.2845 219.189 74.7339 219.476C75.3742 219.625 76.0387 219.664 76.6943 219.591C77.0727 219.568 77.4418 219.473 77.7788 219.313Z" fill="#B16668"/>
<path d="M35.1407 90.7213C28.0917 104.876 35.391 154.744 35.391 154.744C35.1824 157.036 32.3253 161.562 31.22 171.67C29.9582 183.619 33.1908 213.607 33.1908 213.607C34.5764 214.347 36.1377 214.765 37.7388 214.823C39.3399 214.882 40.9323 214.58 42.3774 213.943C42.3774 213.943 51.0949 168.784 52.7111 156.892C54.1293 146.525 56.8822 123.74 56.8822 123.74L62.3045 156.883C61.171 160.219 60.3511 163.64 59.854 167.106C59.1137 174.097 66.4755 206.626 66.4755 206.626C66.4755 206.626 69.6038 207.681 75.5683 206.875C75.5683 206.875 78.1648 163.72 78.853 155.291C80.0105 141.155 78.2586 97.022 75.4328 88.6499L35.1407 90.7213Z" fill="#5050DB"/>
<path d="M56.8613 123.711L59.145 110.563C59.145 110.563 68.8322 108.722 73.2222 104.924C73.2222 104.924 68.6132 110.189 61.7519 111.915L59.1867 122.042L61.4807 152.059L56.8613 123.711Z" fill="#263238"/>
<path d="M42.4399 219.093V217.884C43.3158 218.23 45.3491 225.355 48.9675 228.385C51.8455 230.792 55.7663 233.583 56.7569 236.268C57.7475 238.953 51.3033 240.603 48.613 240.171C45.4847 239.663 40.0832 237.64 38.7276 235.77C37.3721 233.9 36.736 231.128 35.5994 229.757C34.4628 228.385 31.9602 226.88 31.3554 225.269C31.0321 224.396 31.4179 222.478 31.8767 220.867C32.3356 219.256 32.7631 217.75 33.3157 217.894V218.853C34.611 219.789 36.2151 220.289 37.8622 220.272C39.2177 220.272 42.4503 220.023 42.4399 219.093Z" fill="#263238"/>
<path d="M75.5265 210.912C75.9957 210.912 76.5067 211.584 77.5494 212.619C79.1099 214.067 80.9211 215.266 82.9092 216.168C86.319 217.74 92.9509 220.157 95.9541 221.404C97.831 222.181 97.7476 224.281 95.8081 225.441C93.8685 226.602 89.1866 227.484 83.5661 226.333C80.5004 225.7 76.5171 223.101 73.9936 223.235C71.4702 223.37 66.7569 223.351 64.8904 222.161C63.0238 220.972 63.7746 218.46 64.296 216.302C64.8695 213.933 65.589 210.251 66.4441 210.404V211.219C67.4868 212.744 73.1907 213.367 75.5995 212.245L75.5265 210.912Z" fill="#263238"/>
<path d="M47.5704 41.5439C38.5297 42.1193 37.9041 46.128 35.6413 50.5202C33.9208 53.8575 34.4838 57.8469 35.7977 61.3377L41.512 77.9763C41.512 77.9763 38.5819 84.5358 35.1408 90.7214C50.9385 98.8345 70.6675 94.5573 75.412 88.6499C75.6205 87.3936 74.3692 77.5831 73.6393 71.177C76.4235 64.7517 77.1638 60.6855 75.9855 56.4372C73.8062 48.5638 65.3494 40.8918 61.6059 41.1699L47.5704 41.5439Z" fill="#DD4919"/>
<path d="M33.3054 8.27612L36.0374 12.3231C35.7576 12.5006 35.4416 12.6243 35.1084 12.6867C34.7753 12.7491 34.4319 12.7489 34.0988 12.6862C33.7657 12.6235 33.4499 12.4996 33.1702 12.3218C32.8905 12.1441 32.6528 11.9162 32.4712 11.6518C32.1132 11.0981 32.0001 10.439 32.1553 9.81076C32.3106 9.18253 32.7223 8.63315 33.3054 8.27612Z" fill="#263238"/>
<path d="M68.0816 8.1228C70.1671 9.28319 72.8574 14.222 72.5967 24.5792C72.3673 33.354 69.2808 35.483 67.7792 36.1543C66.2776 36.8256 63.2328 36.3941 60.3131 35.9529V41.237C60.3131 41.237 64.3381 45.5333 64.0878 47.95C63.8376 50.3666 58.2797 50.9325 54.5049 48.5733C52.0655 46.9591 49.9725 44.9431 48.3318 42.6275V29.8729C48.3318 29.8729 46.361 32.2895 43.118 30.3236C39.8751 28.3577 39.7812 23.4955 41.6477 21.7502C43.5143 20.0048 47.5289 20.561 48.2797 23.016C48.2797 23.016 52.9199 23.1791 59.1035 20.0527C61.5154 18.8545 63.5856 17.1495 65.1457 15.0764C66.7058 13.0034 67.7117 10.6209 68.0816 8.1228Z" fill="#B16668"/>
<path d="M60.8654 22.3735C60.8782 22.5212 60.8587 22.6697 60.8082 22.8104C60.7577 22.9511 60.6772 23.0811 60.5713 23.1927C60.4654 23.3044 60.3364 23.3955 60.1917 23.4606C60.047 23.5258 59.8896 23.5637 59.7288 23.5722C59.4136 23.5646 59.1131 23.4479 58.8874 23.2453C58.6618 23.0427 58.5276 22.7692 58.5118 22.4795C58.496 22.1899 58.5997 21.9054 58.8021 21.683C59.0046 21.4607 59.2909 21.3168 59.6037 21.2802C59.7648 21.2751 59.9254 21.2994 60.0762 21.3517C60.227 21.404 60.3651 21.4832 60.4824 21.5849C60.5997 21.6866 60.694 21.8086 60.7597 21.9439C60.8255 22.0793 60.8614 22.2253 60.8654 22.3735Z" fill="#263238"/>
<path d="M62.2524 29.8154L65.047 30.6306C65.0028 30.8065 64.9195 30.9722 64.8025 31.1173C64.6855 31.2623 64.5373 31.3837 64.367 31.4737C64.1968 31.5636 64.0081 31.6204 63.813 31.6403C63.6178 31.6603 63.4202 31.643 63.2326 31.5896C62.8473 31.4733 62.5277 31.2213 62.344 30.8887C62.1603 30.5562 62.1274 30.1702 62.2524 29.8154Z" fill="#9A4A4D"/>
<path d="M70.7089 18.9883L68.2793 17.4347C68.3816 17.2853 68.5158 17.1566 68.6738 17.0563C68.8318 16.956 69.0103 16.8862 69.1984 16.8513C69.3866 16.8163 69.5805 16.8168 69.7685 16.8528C69.9564 16.8888 70.1345 16.9596 70.2918 17.0607C70.6184 17.2704 70.8441 17.5881 70.9218 17.9474C70.9996 18.3066 70.9233 18.6796 70.7089 18.9883Z" fill="#263238"/>
<path d="M70.1462 21.5776C70.1589 21.7253 70.1395 21.8738 70.089 22.0145C70.0385 22.1552 69.9579 22.2852 69.8521 22.3968C69.7462 22.5085 69.6171 22.5996 69.4725 22.6647C69.3278 22.7299 69.1704 22.7678 69.0096 22.7763C68.6943 22.7687 68.3938 22.652 68.1682 22.4494C67.9426 22.2468 67.8084 21.9733 67.7926 21.6836C67.7768 21.394 67.8805 21.1095 68.0829 20.8871C68.2854 20.6648 68.5716 20.5209 68.8844 20.4843C69.0455 20.4792 69.2061 20.5035 69.357 20.5558C69.5078 20.6081 69.6458 20.6874 69.7632 20.789C69.8805 20.8907 69.9747 21.0127 70.0405 21.148C70.1062 21.2834 70.1421 21.4294 70.1462 21.5776Z" fill="#263238"/>
<path d="M64.2856 20.9446L64.4733 27.5904L68.2794 26.5068L64.2856 20.9446Z" fill="#9A4A4D"/>
<path d="M60.2605 35.9528C57.1948 35.5788 50.8757 33.9102 49.8955 31.6182C50.2998 32.7759 51.0828 33.7906 52.1374 34.5239C54.0248 36.0104 60.2918 37.6886 60.2918 37.6886L60.2605 35.9528Z" fill="#9A4A4D"/>
<path opacity="0.1" d="M51.6058 92.2941C47.3097 91.3351 42.9405 87.0292 44.9113 82.8096C45.4693 81.6209 46.4365 80.6336 47.6642 79.9998C48.1132 79.7628 48.6321 79.6622 49.1469 79.7121C49.6618 79.762 50.1464 79.96 50.5318 80.2779C48.4463 79.0312 44.9113 72.9607 44.4317 70.7454L41.9916 63.294C41.7628 61.5844 41.9262 59.8497 42.4713 58.2018L36.1209 51.4888L34.953 52.2368C33.9103 55.1138 34.6923 58.4703 35.7976 61.3952L41.5119 78.0338C41.5119 78.0338 38.5818 84.5358 35.1407 90.7214C40.2803 93.2626 45.9523 94.7614 51.7747 95.1171C57.5971 95.4728 63.4348 94.6769 68.8947 92.7832C63.1498 93.6246 57.2836 93.4587 51.6058 92.2941Z" fill="#5050DB"/>
<path d="M20.7507 81.3326C27.5912 55.6218 32.4921 46.5305 37.904 43.5289C39.9198 42.4595 42.2089 41.9034 44.5359 41.9178C45.2748 42.7734 45.7211 43.8113 45.8185 44.9002C46.4675 50.0808 45.0846 55.3042 41.9186 59.6304C41.9186 59.6304 31.9395 79.0022 30.344 85.8878C28.9467 91.9103 27.3722 99.4864 27.4556 104.684C27.4768 105.621 27.87 106.518 28.5609 107.206C30.3962 109.028 30.3962 110.496 31.5849 112.51C32.5025 114.082 33.514 114.667 33.2325 115.022C32.8535 115.4 32.3321 115.632 31.7742 115.669C31.2164 115.707 30.664 115.547 30.2293 115.224C29.3761 114.661 28.6142 113.989 27.9666 113.229C28.2756 115.155 28.8794 117.03 29.7601 118.801C31.8456 123.049 31.3138 125.216 25.0781 123.701C21.1678 122.742 18.7173 119.76 18.1334 111.119C17.8427 107.929 17.8079 104.724 18.0291 101.529C18.8633 93.368 19.4577 86.1659 20.7507 81.3326Z" fill="#B16668"/>
<path d="M59.6457 79.2708C61.5227 79.7695 63.3475 79.5489 65.9022 80.4408C67.8213 81.1907 69.8539 81.6661 71.9294 81.8505C74.1817 82.0232 76.3923 79.8366 82.1588 76.8254C87.6333 73.9484 94.3799 79.875 90.8762 83.5384C89.6419 84.6304 88.1951 85.499 86.6113 86.0989C83.994 87.0579 81.3976 87.5662 74.6927 89.4362C73.5639 89.7909 72.4688 90.2303 71.4184 90.75C70.1172 91.2914 68.7756 91.7464 67.4038 92.1118C64.2725 93.0579 60.9291 93.2461 57.6957 92.6584C55.6945 92.3574 53.8498 91.4773 52.4298 90.1459C51.2307 88.8992 50.1462 86.5304 50.5529 84.8618C50.6595 84.3567 50.95 83.9 51.3766 83.5671C52.4194 82.8095 54.0357 83.289 55.214 83.4617C56.5864 83.7226 57.9836 83.8575 59.385 83.8644C61.6374 83.7781 63.2119 83.4329 62.8991 83.126C62.5863 82.8191 61.2724 82.963 59.4893 82.167C57.7062 81.371 56.6008 79.7983 57.1118 78.9544C57.6227 78.1105 57.7687 78.7722 59.6457 79.2708Z" fill="#B16668"/>
<path d="M80.4382 77.679C80.4382 77.679 83.5039 77.2091 85.4955 80.4121C87.4872 83.6152 88.5299 100.551 88.5299 100.551L86.4444 99.429C86.4444 99.429 85.7353 85.8784 83.9627 82.0136C83.5056 81.0316 82.7208 80.2087 81.7217 79.6639C80.7226 79.1191 79.5609 78.8808 78.4048 78.9832C78.6222 78.6444 78.9163 78.3526 79.2671 78.1276C79.618 77.9025 80.0173 77.7495 80.4382 77.679Z" fill="#263238"/>
<path d="M9.78116 123.097H0.66748V253.808C0.706186 254.176 0.850084 254.528 1.08453 254.827C1.31898 255.127 1.63561 255.365 2.00221 255.515C3 255.983 4.1042 256.227 5.22432 256.227C6.34445 256.227 7.44864 255.983 8.44643 255.515C8.81303 255.365 9.12966 255.127 9.36411 254.827C9.59856 254.528 9.74246 254.176 9.78116 253.808V123.097Z" fill="#5050DB"/>
<path d="M5.22432 125.514C7.74099 125.514 9.78116 124.432 9.78116 123.097C9.78116 121.762 7.74099 120.68 5.22432 120.68C2.70765 120.68 0.66748 121.762 0.66748 123.097C0.66748 124.432 2.70765 125.514 5.22432 125.514Z" fill="#5050DB"/>
<path d="M7.9668 139.256C40.3444 167.508 79.5102 187.695 124.38 201.073V192.759C79.5415 179.333 40.3444 159.194 7.9668 130.951V139.256Z" fill="#DD4919"/>
<path opacity="0.7" d="M7.9668 139.256C40.3444 167.508 79.5102 187.695 124.38 201.073V192.759C79.5415 179.333 40.3444 159.194 7.9668 130.951V139.256Z" fill="white"/>
<path d="M126.351 185.326H117.248V316.028C117.282 316.398 117.425 316.752 117.659 317.054C117.894 317.356 118.213 317.595 118.582 317.745C119.58 318.208 120.682 318.45 121.799 318.45C122.917 318.45 124.019 318.208 125.016 317.745C125.385 317.595 125.704 317.356 125.939 317.054C126.174 316.752 126.316 316.398 126.351 316.028V185.326Z" fill="#5050DB"/>
<path d="M118.582 187.004C119.58 187.468 120.682 187.709 121.799 187.709C122.917 187.709 124.019 187.468 125.016 187.004C126.799 186.045 126.799 184.53 125.016 183.581C124.019 183.117 122.917 182.876 121.799 182.876C120.682 182.876 119.58 183.117 118.582 183.581C116.789 184.559 116.789 186.045 118.582 187.004Z" fill="#5050DB"/>
<path d="M123.994 200.708C156.372 228.96 195.538 249.147 240.407 262.525V254.23C195.569 240.804 156.372 220.665 123.994 192.413V200.708Z" fill="#DD4919"/>
<path opacity="0.7" d="M123.994 200.708C156.372 228.96 195.538 249.147 240.407 262.525V254.23C195.569 240.804 156.372 220.665 123.994 192.413V200.708Z" fill="white"/>
<path d="M242.962 247.546H233.849V378.257C233.885 378.627 234.027 378.981 234.262 379.283C234.497 379.585 234.815 379.823 235.183 379.974C236.183 380.438 237.286 380.679 238.405 380.679C239.525 380.679 240.628 380.438 241.628 379.974C241.995 379.822 242.312 379.582 242.546 379.281C242.781 378.979 242.924 378.626 242.962 378.257V247.546Z" fill="#5050DB"/>
<path d="M238.374 249.963C240.891 249.963 242.931 248.881 242.931 247.546C242.931 246.211 240.891 245.129 238.374 245.129C235.858 245.129 233.817 246.211 233.817 247.546C233.817 248.881 235.858 249.963 238.374 249.963Z" fill="#5050DB"/>
</g>
<defs>
<clipPath id="clip0_501_561">
<rect width="439" height="421" fill="white"/>
</clipPath>
</defs>
</svg>
