<svg width="472" height="458" viewBox="0 0 472 458" fill="none" xmlns="http://www.w3.org/2000/svg">
<g clip-path="url(#clip0_502_720)">
<path d="M236.05 457.05C366.174 457.05 471.66 396.147 471.66 321.02C471.66 245.893 366.174 184.99 236.05 184.99C105.926 184.99 0.439941 245.893 0.439941 321.02C0.439941 396.147 105.926 457.05 236.05 457.05Z" fill="#F0F0F0"/>
<path d="M371.36 368.22C355.91 359.3 355.91 344.84 371.36 335.92C386.81 327 411.86 327 427.31 335.92C442.76 344.84 442.76 359.3 427.31 368.22C411.86 377.14 386.81 377.14 371.36 368.22Z" fill="#E0E0E0"/>
<path d="M57.1202 369.46L16.4802 346C14.1902 344.68 14.1902 342.53 16.4802 341.21L252.87 204.73C254.155 204.079 255.575 203.74 257.015 203.74C258.455 203.74 259.875 204.079 261.16 204.73L301.81 228.19C304.1 229.51 304.1 231.66 301.81 232.98L65.4202 369.46C64.1337 370.111 62.7121 370.45 61.2702 370.45C59.8283 370.45 58.4067 370.111 57.1202 369.46Z" fill="#E0E0E0"/>
<path d="M203.2 327.64L238.14 307.44C241.74 305.36 243.54 302.64 243.54 299.91C243.54 297.18 243.54 295.05 243.54 295.05L207.3 274.61C206.288 273.956 205.445 273.071 204.84 272.028C204.235 270.985 203.885 269.814 203.82 268.61V225.52L142.82 260.78V303.85C142.89 305.053 143.242 306.222 143.846 307.264C144.45 308.306 145.291 309.192 146.3 309.85L177.14 327.61C184.32 331.8 196 331.8 203.2 327.64Z" fill="#5050DB"/>
<g opacity="0.6">
<path d="M203.2 327.64L238.14 307.44C241.74 305.36 243.54 302.64 243.54 299.91C243.54 297.18 243.54 295.05 243.54 295.05L207.3 274.61C206.288 273.956 205.445 273.071 204.84 272.028C204.235 270.985 203.885 269.814 203.82 268.61V225.52L142.82 260.78V303.85C142.89 305.053 143.242 306.222 143.846 307.264C144.45 308.306 145.291 309.192 146.3 309.85L177.14 327.61C184.32 331.8 196 331.8 203.2 327.64Z" fill="black"/>
</g>
<path opacity="0.3" d="M157.45 311.48V316.32L146.27 309.87C145.261 309.213 144.421 308.327 143.818 307.284C143.216 306.242 142.867 305.072 142.8 303.87V260.78L154.42 254.07C154.66 257.02 154.92 260.07 155.17 263.07L147 267.77V301.42C147.065 302.624 147.414 303.795 148.019 304.838C148.624 305.881 149.467 306.766 150.48 307.42L157.45 311.48Z" fill="black"/>
<path d="M147 301.43C147.069 302.633 147.42 303.803 148.024 304.845C148.629 305.888 149.47 306.773 150.48 307.43L177.1 322.77C184.3 326.92 195.98 326.93 203.19 322.77L238.19 302.57C245.4 298.41 245.4 291.67 238.19 287.51L211.55 272.17C210.542 271.512 209.703 270.625 209.101 269.583C208.498 268.541 208.148 267.372 208.08 266.17V232.51L147.08 267.77L147 301.43Z" fill="#5050DB"/>
<path opacity="0.3" d="M147 301.43C147.069 302.633 147.42 303.803 148.024 304.845C148.629 305.888 149.47 306.773 150.48 307.43L177.1 322.77C184.3 326.92 195.98 326.93 203.19 322.77L238.19 302.57C245.4 298.41 245.4 291.67 238.19 287.51L211.55 272.17C210.542 271.512 209.703 270.625 209.101 269.583C208.498 268.541 208.148 267.372 208.08 266.17V232.51L147.08 267.77L147 301.43Z" fill="black"/>
<path opacity="0.5" d="M218.6 276.28L211.51 272.19C210.502 271.532 209.663 270.645 209.061 269.603C208.458 268.561 208.108 267.392 208.04 266.19V232.51L147.04 267.77V301.43C147.109 302.633 147.46 303.803 148.064 304.845C148.669 305.888 149.51 306.773 150.52 307.43L157.52 311.43L218.6 276.28Z" fill="black"/>
<path d="M243.55 295.06V299.92C243.55 302.65 241.74 305.36 238.15 307.45L203.15 327.64C199.32 329.685 195.042 330.746 190.7 330.73V325.89C195.042 325.906 199.32 324.845 203.15 322.8L238.15 302.59C241.74 300.52 243.55 297.79 243.55 295.06Z" fill="#5050DB"/>
<path opacity="0.5" d="M243.55 295.06V299.92C243.55 302.65 241.74 305.36 238.15 307.45L203.15 327.64C199.32 329.685 195.042 330.746 190.7 330.73V325.89C195.042 325.906 199.32 324.845 203.15 322.8L238.15 302.59C241.74 300.52 243.55 297.79 243.55 295.06Z" fill="black"/>
<path d="M49 343.26C50.3187 343.897 51.7686 344.215 53.2329 344.189C54.6971 344.163 56.1348 343.794 57.43 343.11L293.43 206.86C294.695 206.035 295.749 204.923 296.504 203.615C297.26 202.307 297.697 200.839 297.78 199.33V8.41016C297.735 6.94253 297.344 5.50635 296.638 4.21865C295.932 2.93094 294.933 1.82816 293.72 1.00016C292.403 0.362518 290.954 0.0446779 289.491 0.0724796C288.028 0.100281 286.592 0.47294 285.3 1.16016L49.3 137.45C48.039 138.281 46.9921 139.398 46.2449 140.71C45.4976 142.022 45.071 143.492 45 145V335.89C45.0446 337.346 45.4297 338.771 46.1243 340.05C46.819 341.33 47.8038 342.43 49 343.26Z" fill="#5050DB"/>
<path d="M57.4599 343.1L293.46 206.85C294.727 206.027 295.781 204.915 296.537 203.607C297.293 202.298 297.729 200.829 297.81 199.32V8.41014C297.81 5.64014 295.86 4.51014 293.46 5.90014L57.4599 142.15C56.1939 142.975 55.1402 144.087 54.3844 145.395C53.6286 146.703 53.1919 148.171 53.1099 149.68V340.59C53.1099 343.36 55.0599 344.49 57.4599 343.1Z" fill="#5050DB"/>
<path opacity="0.5" d="M57.4599 343.1L293.46 206.85C294.727 206.027 295.781 204.915 296.537 203.607C297.293 202.298 297.729 200.829 297.81 199.32V8.41014C297.81 5.64014 295.86 4.51014 293.46 5.90014L57.4599 142.15C56.1939 142.975 55.1402 144.087 54.3844 145.395C53.6286 146.703 53.1919 148.171 53.1099 149.68V340.59C53.1099 343.36 55.0599 344.49 57.4599 343.1Z" fill="black"/>
<path d="M56.82 348.06C55.5824 348.6 54.2425 348.866 52.8924 348.838C51.5424 348.811 50.2144 348.49 49 347.9C47.8012 347.068 46.8146 345.965 46.1199 344.682C45.4251 343.398 45.0415 341.969 45 340.51V323.13L53.15 327.85V345.23C53.1 347.76 54.71 348.91 56.82 348.06Z" fill="#5050DB"/>
<path opacity="0.5" d="M56.82 348.06C55.5824 348.6 54.2425 348.866 52.8924 348.838C51.5424 348.811 50.2144 348.49 49 347.9C47.8012 347.068 46.8146 345.965 46.1199 344.682C45.4251 343.398 45.0415 341.969 45 340.51V323.13L53.15 327.85V345.23C53.1 347.76 54.71 348.91 56.82 348.06Z" fill="black"/>
<path d="M53.1001 327.85V345.23C53.1001 348 55.1001 349.12 57.4501 347.74L293.45 211.49C294.71 210.669 295.76 209.563 296.516 208.262C297.271 206.962 297.711 205.502 297.8 204V186.54L53.1001 327.85Z" fill="#5050DB"/>
<path opacity="0.3" d="M53.1099 327.81V345.23C53.1099 348 55.1099 349.12 57.4599 347.74L293.46 211.49C294.718 210.668 295.766 209.562 296.52 208.261C297.274 206.96 297.712 205.501 297.8 204V186.54L53.1099 327.81Z" fill="black"/>
<path d="M61.2598 306V152.39C61.3063 151.485 61.5661 150.604 62.0179 149.818C62.4698 149.033 63.1009 148.365 63.8598 147.87L287 19.0001C288.44 18.1701 289.61 18.8401 289.61 20.5001V174.19C289.561 175.096 289.3 175.977 288.846 176.763C288.393 177.548 287.76 178.215 287 178.71L63.8698 307.55C62.4298 308.38 61.2598 307.7 61.2598 306Z" fill="#5050DB"/>
<path d="M61.2598 306V152.39C61.3063 151.485 61.5661 150.604 62.0179 149.818C62.4698 149.033 63.1009 148.365 63.8598 147.87L287 19.0001C288.44 18.1701 289.61 18.8401 289.61 20.5001V174.19C289.561 175.096 289.3 175.977 288.846 176.763C288.393 177.548 287.76 178.215 287 178.71L63.8698 307.55C62.4298 308.38 61.2598 307.7 61.2598 306Z" fill="#263238"/>
<path d="M175.45 262.73C174.262 263.503 173.274 264.545 172.565 265.772C171.856 266.998 171.446 268.375 171.37 269.79C171.37 272.39 173.2 273.45 175.45 272.15C176.639 271.377 177.629 270.333 178.338 269.104C179.047 267.876 179.455 266.497 179.53 265.08C179.53 262.48 177.7 261.43 175.45 262.73Z" fill="#5050DB"/>
<path opacity="0.7" d="M54.39 145.38C53.615 146.683 53.172 148.156 53.1 149.67V327.85L45 323.13V145C45.0525 143.481 45.4931 142.001 46.28 140.7L54.39 145.38Z" fill="black"/>
<path opacity="0.3" d="M297.76 7.69031C297.45 5.45031 295.64 4.69031 293.45 5.90031L57.4502 142.15C56.1706 142.951 55.1145 144.062 54.3802 145.38L46.2202 140.67C46.9594 139.352 48.0186 138.241 49.3002 137.44L285.3 1.20031C286.594 0.512994 288.031 0.140318 289.496 0.112518C290.961 0.084719 292.411 0.40258 293.73 1.04031C294.839 1.79567 295.772 2.78027 296.468 3.92753C297.163 5.0748 297.604 6.35798 297.76 7.69031Z" fill="black"/>
<path d="M310.49 31.1898C310.139 31.0139 309.747 30.9368 309.356 30.9668C308.965 30.9967 308.59 31.1326 308.27 31.3598L85.59 160C84.7113 160.581 83.9819 161.361 83.4607 162.277C82.9395 163.192 82.6412 164.218 82.59 165.27V317.94C82.5588 318.455 82.6611 318.97 82.8871 319.434C83.1131 319.898 83.4551 320.296 83.88 320.59C84.37 320.86 86.99 322.38 87.77 322.8C88.0459 322.94 88.3543 323.005 88.6635 322.988C88.9727 322.97 89.2717 322.871 89.53 322.7L312.16 194.06C313.039 193.479 313.768 192.699 314.289 191.783C314.81 190.868 315.109 189.842 315.16 188.79V35.3298C315.205 34.942 315.14 34.5495 314.974 34.1962C314.808 33.8429 314.547 33.5429 314.22 33.3298C313.72 32.9998 311.05 31.5198 310.49 31.1898Z" fill="#5050DB"/>
<path d="M89.48 162.16L312.17 33.57C313.85 32.57 315.17 33.39 315.17 35.33V188.79C315.119 189.842 314.82 190.868 314.299 191.783C313.778 192.699 313.049 193.479 312.17 194.06L89.48 322.7C87.8 323.7 86.48 322.09 86.48 320.15V167.43C86.5328 166.378 86.8317 165.353 87.3528 164.438C87.8738 163.523 88.6024 162.742 89.48 162.16Z" fill="#FAFAFA"/>
<path d="M313.53 34.1499C314.12 34.1499 314.21 34.8899 314.21 35.3299V188.79C314.156 189.671 313.898 190.527 313.455 191.291C313.012 192.055 312.398 192.705 311.66 193.19L89 321.83C88.8505 321.927 88.6779 321.982 88.5 321.99C87.94 321.99 87.5 321.13 87.5 320.15V167.43C87.5482 166.549 87.7989 165.691 88.2325 164.923C88.666 164.155 89.2709 163.497 90 163L312.67 34.4299C312.928 34.2637 313.224 34.1672 313.53 34.1499ZM313.53 33.1499C313.048 33.1704 312.58 33.3151 312.17 33.5699L89.48 162.16C88.6024 162.742 87.8738 163.523 87.3528 164.438C86.8317 165.353 86.5328 166.378 86.48 167.43V320.15C86.48 321.69 87.34 322.99 88.48 322.99C88.8331 322.983 89.1781 322.883 89.48 322.7L312.16 194.06C313.039 193.479 313.768 192.699 314.289 191.783C314.81 190.868 315.109 189.842 315.16 188.79V35.3299C315.16 33.9499 314.48 33.1499 313.48 33.1499H313.53Z" fill="#E0E0E0"/>
<path d="M83.8201 320.59C84.1501 320.76 86.5201 322.11 87.5601 322.71C87.1866 322.4 86.8908 322.007 86.6964 321.563C86.5019 321.118 86.4141 320.634 86.4401 320.15V177.4L82.5401 175.12V317.94C82.5078 318.454 82.6086 318.968 82.8328 319.433C83.057 319.897 83.397 320.295 83.8201 320.59Z" fill="#F0F0F0"/>
<path d="M315.21 35.2996C315.21 33.3796 313.84 32.5996 312.21 33.5696L89.48 162.16C88.6024 162.742 87.8738 163.522 87.3528 164.438C86.8317 165.353 86.5328 166.378 86.48 167.43V177.43L315.21 45.2996V35.2996Z" fill="#5050DB"/>
<g opacity="0.4">
<path d="M312.17 33.5699L89.4802 162.15C88.5865 162.713 87.8502 163.494 87.3402 164.42L83.4702 162.17C83.9793 161.277 84.7093 160.53 85.5902 160L308.27 31.3599C308.589 31.131 308.964 30.9934 309.355 30.9617C309.746 30.9299 310.139 31.0054 310.49 31.1799C311.03 31.5199 313.56 32.9499 314.21 33.2999C313.874 33.1752 313.512 33.1346 313.157 33.1816C312.801 33.2287 312.462 33.362 312.17 33.5699Z" fill="white"/>
</g>
<path opacity="0.15" d="M82.54 175.13V165.22C82.5811 164.14 82.9015 163.089 83.47 162.17L87.35 164.41C86.7897 165.313 86.4759 166.348 86.44 167.41V177.41L82.54 175.13Z" fill="black"/>
<path d="M268.25 150.42L134.88 227.42C134.231 227.841 133.691 228.409 133.304 229.078C132.916 229.747 132.692 230.498 132.65 231.27V269.51C132.692 270.282 132.916 271.033 133.304 271.702C133.691 272.371 134.231 272.939 134.88 273.36L138.77 275.6C139.461 275.95 140.225 276.132 141 276.132C141.775 276.132 142.539 275.95 143.23 275.6L276.58 198.6C277.229 198.177 277.769 197.607 278.156 196.936C278.544 196.266 278.768 195.513 278.81 194.74V156.49C278.768 155.718 278.544 154.967 278.156 154.298C277.768 153.629 277.228 153.061 276.58 152.64L272.68 150.4C271.992 150.056 271.232 149.878 270.463 149.882C269.693 149.885 268.935 150.07 268.25 150.42Z" fill="#5050DB"/>
<path opacity="0.5" d="M278.81 156.15C278.65 155 277.72 154.58 276.6 155.23L143.23 232.23C142.572 232.639 142.031 233.21 141.66 233.89L133.31 229.07C133.684 228.401 134.221 227.837 134.87 227.43L268.25 150.43C268.939 150.079 269.702 149.897 270.475 149.897C271.248 149.897 272.011 150.079 272.7 150.43L276.6 152.67C277.195 153.059 277.699 153.571 278.08 154.171C278.462 154.772 278.71 155.446 278.81 156.15Z" fill="white"/>
<path d="M142.85 275.79C142.197 276.047 141.497 276.164 140.796 276.133C140.095 276.102 139.408 275.924 138.78 275.61L134.88 273.37C134.232 272.948 133.693 272.379 133.306 271.711C132.919 271.042 132.694 270.291 132.65 269.52V231.28C132.68 230.499 132.907 229.739 133.31 229.07L141.66 233.89C141.254 234.55 141.027 235.305 141 236.08V274.33C141 275.6 141.8 276.19 142.85 275.79Z" fill="#263238"/>
<path d="M143.23 232.23L276.6 155.23C277.83 154.52 278.83 155.09 278.83 156.51V194.76C278.788 195.533 278.564 196.286 278.176 196.956C277.789 197.627 277.249 198.197 276.6 198.62L143.25 275.62C142.02 276.33 141.02 275.75 141.02 274.33V236.09C141.06 235.318 141.281 234.567 141.665 233.896C142.049 233.226 142.585 232.655 143.23 232.23Z" fill="#5050DB"/>
<path d="M232.89 170.84L134.89 227.43C134.241 227.837 133.704 228.401 133.33 229.07L141.68 233.89C142.052 233.21 142.592 232.639 143.25 232.23L241.25 175.65L232.89 170.84Z" fill="#455A64"/>
<path d="M241.23 175.65L143.23 232.23C142.581 232.653 142.041 233.223 141.654 233.893C141.266 234.564 141.042 235.317 141 236.09V274.32C141 275.74 142 276.32 143.23 275.61L241.23 219.03V175.65Z" fill="#37474F"/>
<path d="M165.83 227.57L216.4 198.38C218.49 197.17 220.19 198.03 220.19 200.3C220.097 201.575 219.704 202.81 219.044 203.904C218.383 204.999 217.474 205.922 216.39 206.6L165.83 235.8C163.74 237.01 162.03 236.15 162.03 233.88C162.125 232.604 162.518 231.368 163.178 230.272C163.838 229.175 164.747 228.25 165.83 227.57Z" fill="#5050DB"/>
<path d="M176.19 237.24C176.199 237.229 176.211 237.221 176.224 237.215C176.237 237.209 176.251 237.206 176.265 237.206C176.279 237.206 176.293 237.209 176.306 237.215C176.319 237.221 176.331 237.229 176.34 237.24C176.385 237.308 176.406 237.389 176.4 237.47V243.16C176.401 243.71 176.354 244.258 176.26 244.8C176.177 245.295 176.036 245.778 175.84 246.24C175.661 246.663 175.425 247.06 175.14 247.42C174.859 247.754 174.52 248.035 174.14 248.25C173.842 248.444 173.495 248.548 173.14 248.55C173.004 248.539 172.872 248.501 172.752 248.437C172.631 248.374 172.525 248.286 172.44 248.18C172.22 247.886 172.076 247.542 172.02 247.18C171.924 246.696 171.881 246.203 171.89 245.71V240.01C171.89 239.91 171.91 239.811 171.95 239.72C171.974 239.637 172.028 239.567 172.1 239.52L172.73 239.15C172.75 239.131 172.777 239.12 172.805 239.12C172.833 239.12 172.86 239.131 172.88 239.15C172.926 239.217 172.947 239.299 172.94 239.38V245C172.932 245.309 172.962 245.618 173.03 245.92C173.057 246.113 173.141 246.294 173.27 246.44C173.315 246.494 173.372 246.536 173.436 246.564C173.5 246.591 173.57 246.604 173.64 246.6C173.811 246.589 173.976 246.534 174.12 246.44C174.298 246.334 174.459 246.202 174.6 246.05C174.756 245.87 174.884 245.668 174.98 245.45C175.093 245.193 175.177 244.925 175.23 244.65C175.288 244.32 175.315 243.985 175.31 243.65V238.02C175.313 237.919 175.337 237.821 175.38 237.73C175.404 237.647 175.458 237.577 175.53 237.53L176.19 237.24Z" fill="#FAFAFA"/>
<path d="M180.11 242.62C180.115 242.546 180.098 242.473 180.06 242.41C180.036 242.384 180.006 242.364 179.973 242.352C179.94 242.34 179.905 242.335 179.87 242.34C179.747 242.323 179.623 242.323 179.5 242.34L178.92 242.45C178.733 242.496 178.537 242.496 178.35 242.45C178.203 242.403 178.076 242.308 177.99 242.18C177.892 242.018 177.827 241.837 177.8 241.65C177.702 241.114 177.702 240.565 177.8 240.03C177.875 239.723 177.982 239.424 178.12 239.14C178.257 238.856 178.424 238.587 178.62 238.34C178.809 238.104 179.039 237.904 179.3 237.75C179.51 237.622 179.745 237.54 179.99 237.51C180.167 237.491 180.346 237.53 180.5 237.62C180.647 237.709 180.762 237.842 180.83 238C180.91 238.186 180.955 238.387 180.96 238.59C180.97 238.69 180.949 238.792 180.9 238.88C180.875 238.962 180.822 239.033 180.75 239.08L180.15 239.43C180.122 239.446 180.091 239.454 180.06 239.454C180.028 239.454 179.997 239.446 179.97 239.43L179.84 239.33C179.788 239.289 179.725 239.265 179.66 239.26C179.531 239.274 179.408 239.319 179.3 239.39C179.143 239.484 179.004 239.606 178.89 239.75C178.769 239.907 178.705 240.101 178.71 240.3C178.696 240.376 178.696 240.454 178.71 240.53C178.729 240.558 178.754 240.582 178.784 240.599C178.813 240.616 178.846 240.627 178.88 240.63C178.989 240.648 179.101 240.648 179.21 240.63L179.77 240.53C180.24 240.44 180.56 240.53 180.77 240.79C180.99 241.16 181.092 241.59 181.06 242.02C181.057 242.317 181.017 242.613 180.94 242.9C180.861 243.212 180.747 243.514 180.6 243.8C180.453 244.096 180.268 244.372 180.05 244.62C179.843 244.863 179.596 245.069 179.32 245.23C179.1 245.37 178.85 245.456 178.59 245.48C178.402 245.486 178.216 245.434 178.06 245.33C177.905 245.224 177.787 245.074 177.72 244.9C177.639 244.71 177.598 244.506 177.6 244.3C177.59 244.196 177.611 244.092 177.66 244C177.684 243.917 177.738 243.846 177.81 243.8L178.41 243.45C178.49 243.45 178.55 243.4 178.59 243.45L178.72 243.59C178.746 243.62 178.779 243.644 178.815 243.661C178.851 243.678 178.89 243.688 178.93 243.69C179.071 243.691 179.208 243.645 179.32 243.56C179.5 243.457 179.663 243.326 179.8 243.17C179.868 243.088 179.925 242.997 179.97 242.9C180.04 242.821 180.089 242.724 180.11 242.62Z" fill="#FAFAFA"/>
<path d="M182.15 239.91C182.148 239.39 182.192 238.872 182.28 238.36C182.364 237.878 182.494 237.406 182.67 236.95C182.817 236.541 183.019 236.154 183.27 235.8C183.48 235.495 183.753 235.239 184.07 235.05C184.302 234.894 184.585 234.833 184.86 234.88C185.105 234.936 185.319 235.083 185.46 235.29C185.648 235.561 185.781 235.867 185.85 236.19C185.946 236.61 185.993 237.039 185.99 237.47V238.09C185.993 238.194 185.969 238.298 185.92 238.39C185.896 238.472 185.843 238.543 185.77 238.59L183.17 240.1C183.164 240.276 183.188 240.452 183.24 240.62C183.279 240.733 183.348 240.833 183.44 240.91C183.522 240.975 183.626 241.007 183.73 241C183.851 240.986 183.967 240.945 184.07 240.88C184.221 240.798 184.357 240.689 184.47 240.56C184.573 240.445 184.66 240.317 184.73 240.18C184.773 240.101 184.82 240.024 184.87 239.95C184.913 239.899 184.964 239.855 185.02 239.82L185.64 239.46C185.662 239.443 185.688 239.433 185.715 239.433C185.742 239.433 185.769 239.443 185.79 239.46C185.816 239.491 185.835 239.528 185.846 239.568C185.856 239.608 185.858 239.649 185.85 239.69C185.839 239.885 185.799 240.077 185.73 240.26C185.644 240.537 185.53 240.805 185.39 241.06C185.234 241.353 185.046 241.628 184.83 241.88C184.615 242.137 184.358 242.357 184.07 242.53C183.834 242.685 183.551 242.752 183.27 242.72C183.024 242.661 182.81 242.511 182.67 242.3C182.473 241.997 182.341 241.656 182.28 241.3C182.189 240.842 182.146 240.376 182.15 239.91ZM184.07 236.72C183.916 236.803 183.783 236.919 183.68 237.06C183.569 237.2 183.478 237.355 183.41 237.52C183.34 237.685 183.283 237.856 183.24 238.03C183.205 238.188 183.182 238.348 183.17 238.51L184.93 237.51C184.92 237.372 184.9 237.235 184.87 237.1C184.855 236.979 184.806 236.865 184.73 236.77C184.7 236.727 184.662 236.69 184.617 236.663C184.572 236.635 184.522 236.617 184.47 236.61C184.328 236.598 184.186 236.637 184.07 236.72Z" fill="#FAFAFA"/>
<path d="M189.13 233.93C188.827 234.103 188.588 234.37 188.45 234.69C188.294 235.112 188.223 235.56 188.24 236.01V239.62C188.241 239.723 188.221 239.825 188.18 239.92C188.155 240.002 188.102 240.073 188.03 240.12L187.44 240.46C187.431 240.471 187.419 240.479 187.406 240.485C187.393 240.491 187.379 240.494 187.365 240.494C187.351 240.494 187.337 240.491 187.324 240.485C187.311 240.479 187.299 240.471 187.29 240.46C187.245 240.392 187.224 240.311 187.23 240.23V233.76C187.23 233.657 187.251 233.555 187.29 233.46C187.318 233.379 187.37 233.309 187.44 233.26L188.03 232.92C188.05 232.901 188.077 232.89 188.105 232.89C188.133 232.89 188.16 232.901 188.18 232.92C188.226 232.983 188.248 233.062 188.24 233.14V233.46C188.359 233.192 188.507 232.937 188.68 232.7C188.838 232.481 189.043 232.3 189.28 232.17L189.64 231.96C189.659 231.942 189.684 231.931 189.71 231.931C189.736 231.931 189.761 231.942 189.78 231.96C189.828 232.027 189.853 232.108 189.85 232.19V233.1C189.848 233.204 189.824 233.306 189.78 233.4C189.755 233.479 189.706 233.549 189.64 233.6L189.13 233.93Z" fill="#FAFAFA"/>
<path d="M196.59 233.45C196.599 233.439 196.611 233.431 196.624 233.425C196.637 233.419 196.651 233.416 196.665 233.416C196.679 233.416 196.693 233.419 196.706 233.425C196.719 233.431 196.731 233.439 196.74 233.45C196.785 233.518 196.806 233.599 196.8 233.68V234.68C196.799 234.783 196.779 234.885 196.74 234.98C196.706 235.054 196.654 235.119 196.59 235.17L193.17 237.17C193.15 237.189 193.123 237.199 193.095 237.199C193.067 237.199 193.04 237.189 193.02 237.17C192.975 237.106 192.954 237.028 192.96 236.95V227.95C192.96 227.847 192.981 227.745 193.02 227.65C193.048 227.572 193.101 227.505 193.17 227.46L193.8 227.09C193.82 227.071 193.847 227.06 193.875 227.06C193.903 227.06 193.93 227.071 193.95 227.09C193.995 227.154 194.016 227.232 194.01 227.31V234.92L196.59 233.45Z" fill="#FAFAFA"/>
<path d="M199.66 226.05C199.885 225.894 200.157 225.82 200.43 225.84C200.664 225.858 200.883 225.966 201.04 226.14C201.227 226.354 201.363 226.607 201.44 226.88C201.547 227.234 201.608 227.6 201.62 227.97C201.62 228.05 201.62 228.16 201.62 228.29V229.06C201.62 229.18 201.62 229.29 201.62 229.38C201.6 229.815 201.54 230.246 201.44 230.67C201.348 231.082 201.214 231.484 201.04 231.87C200.882 232.229 200.677 232.565 200.43 232.87C200.219 233.146 199.958 233.38 199.66 233.56C199.429 233.71 199.156 233.784 198.88 233.77C198.649 233.75 198.435 233.643 198.28 233.47C198.088 233.263 197.951 233.013 197.88 232.74C197.773 232.386 197.713 232.019 197.7 231.65C197.7 231.57 197.7 231.47 197.7 231.34V230.57C197.7 230.44 197.7 230.33 197.7 230.25C197.712 229.812 197.769 229.376 197.87 228.95C197.968 228.534 198.105 228.129 198.28 227.74C198.439 227.383 198.641 227.048 198.88 226.74C199.092 226.461 199.357 226.226 199.66 226.05ZM200.6 228.63C200.6 228.409 200.563 228.189 200.49 227.98C200.453 227.852 200.376 227.74 200.27 227.66C200.185 227.603 200.082 227.578 199.98 227.59C199.866 227.611 199.757 227.656 199.66 227.72C199.543 227.784 199.435 227.865 199.34 227.96C199.226 228.079 199.128 228.214 199.05 228.36C198.95 228.542 198.876 228.737 198.83 228.94C198.765 229.195 198.724 229.457 198.71 229.72C198.71 229.8 198.71 229.89 198.71 230V230.71C198.71 230.82 198.71 230.91 198.71 230.97C198.72 231.191 198.76 231.41 198.83 231.62C198.867 231.748 198.944 231.86 199.05 231.94C199.092 231.969 199.139 231.99 199.189 232C199.239 232.01 199.29 232.01 199.34 232C199.454 231.981 199.562 231.94 199.66 231.88C199.776 231.813 199.884 231.732 199.98 231.64C200.092 231.518 200.189 231.384 200.27 231.24C200.366 231.056 200.44 230.861 200.49 230.66C200.556 230.405 200.592 230.143 200.6 229.88C200.606 229.787 200.606 229.693 200.6 229.6V228.9C200.606 228.81 200.606 228.72 200.6 228.63Z" fill="#FAFAFA"/>
<path d="M204.68 231.9C204.808 231.822 204.923 231.724 205.02 231.61C205.14 231.469 205.244 231.314 205.33 231.15C205.429 230.949 205.506 230.738 205.56 230.52C205.621 230.275 205.652 230.023 205.65 229.77V229.26C205.65 229.36 205.55 229.48 205.48 229.62C205.411 229.766 205.331 229.906 205.24 230.04C205.136 230.18 205.022 230.314 204.9 230.44C204.775 230.571 204.629 230.683 204.47 230.77C204.367 230.84 204.251 230.888 204.129 230.913C204.007 230.937 203.882 230.936 203.76 230.91C203.538 230.84 203.347 230.695 203.22 230.5C203.057 230.241 202.939 229.957 202.87 229.66C202.785 229.282 202.738 228.897 202.73 228.51C202.73 228.38 202.73 228.22 202.73 228.03C202.73 227.84 202.73 227.68 202.73 227.54C202.742 227.1 202.789 226.662 202.87 226.23C202.952 225.804 203.069 225.386 203.22 224.98C203.361 224.627 203.543 224.291 203.76 223.98C203.944 223.704 204.187 223.472 204.47 223.3C204.603 223.22 204.748 223.162 204.9 223.13C205.012 223.109 205.128 223.109 205.24 223.13C205.329 223.155 205.411 223.199 205.48 223.26C205.544 223.309 205.601 223.366 205.65 223.43V223.11C205.65 223.007 205.671 222.905 205.71 222.81C205.738 222.732 205.791 222.665 205.86 222.62L206.45 222.27C206.47 222.251 206.497 222.24 206.525 222.24C206.553 222.24 206.58 222.251 206.6 222.27C206.648 222.337 206.673 222.417 206.67 222.5V229C206.697 229.973 206.516 230.941 206.14 231.84C205.845 232.546 205.334 233.141 204.68 233.54C204.457 233.678 204.202 233.757 203.94 233.77C203.733 233.782 203.526 233.73 203.35 233.62C203.181 233.493 203.044 233.329 202.95 233.14C202.852 232.912 202.798 232.668 202.79 232.42C202.781 232.316 202.801 232.212 202.85 232.12C202.874 232.037 202.928 231.966 203 231.92L203.53 231.62C203.542 231.607 203.557 231.596 203.573 231.589C203.59 231.582 203.607 231.579 203.625 231.579C203.643 231.579 203.66 231.582 203.677 231.589C203.693 231.596 203.708 231.607 203.72 231.62C203.769 231.672 203.813 231.729 203.85 231.79C203.911 231.897 204.011 231.976 204.13 232.01C204.25 232.1 204.43 232 204.68 231.9ZM203.74 227.05C203.74 227.316 203.74 227.576 203.74 227.83C203.711 228.229 203.825 228.626 204.06 228.95C204.149 229.027 204.263 229.069 204.38 229.069C204.497 229.069 204.611 229.027 204.7 228.95C204.99 228.761 205.217 228.489 205.35 228.17C205.532 227.753 205.634 227.305 205.65 226.85C205.65 226.7 205.65 226.52 205.65 226.31C205.65 226.1 205.65 225.92 205.65 225.79C205.67 225.432 205.564 225.078 205.35 224.79C205.261 224.708 205.145 224.663 205.025 224.663C204.905 224.663 204.789 224.708 204.7 224.79C204.415 224.978 204.193 225.246 204.06 225.56C203.855 226.03 203.746 226.537 203.74 227.05Z" fill="#FAFAFA"/>
<path d="M209 218.17C209.02 218.154 209.044 218.145 209.07 218.145C209.095 218.145 209.12 218.154 209.14 218.17C209.192 218.235 209.217 218.317 209.21 218.4V219.49C209.211 219.594 209.187 219.697 209.14 219.79C209.112 219.865 209.063 219.931 209 219.98L208.33 220.37C208.321 220.381 208.309 220.389 208.296 220.395C208.283 220.401 208.269 220.404 208.255 220.404C208.241 220.404 208.227 220.401 208.214 220.395C208.201 220.389 208.189 220.381 208.18 220.37C208.154 220.34 208.134 220.305 208.122 220.267C208.11 220.229 208.106 220.189 208.11 220.15V219.06C208.109 218.956 208.133 218.853 208.18 218.76C208.208 218.682 208.261 218.615 208.33 218.57L209 218.17ZM209.17 227.56C209.17 227.66 209.15 227.758 209.11 227.85C209.078 227.928 209.026 227.997 208.96 228.05L208.36 228.39C208.351 228.4 208.341 228.409 208.329 228.415C208.317 228.42 208.303 228.423 208.29 228.423C208.276 228.423 208.263 228.42 208.251 228.415C208.239 228.409 208.228 228.4 208.22 228.39C208.168 228.325 208.142 228.243 208.15 228.16V221.69C208.149 221.586 208.173 221.483 208.22 221.39C208.248 221.312 208.296 221.243 208.36 221.19L208.96 220.85C208.98 220.831 209.007 220.82 209.035 220.82C209.063 220.82 209.09 220.831 209.11 220.85C209.155 220.914 209.176 220.992 209.17 221.07V227.56Z" fill="#FAFAFA"/>
<path d="M214.43 224.51C214.43 224.613 214.409 224.715 214.37 224.81C214.342 224.888 214.29 224.954 214.22 225L213.62 225.35C213.601 225.368 213.576 225.378 213.55 225.378C213.524 225.378 213.499 225.368 213.48 225.35C213.428 225.285 213.403 225.203 213.41 225.12V221.6C213.441 221.184 213.365 220.768 213.19 220.39C213.05 220.14 212.83 220.1 212.52 220.28C212.211 220.488 211.982 220.794 211.87 221.15C211.703 221.622 211.622 222.119 211.63 222.62V226.15C211.63 226.253 211.609 226.355 211.57 226.45C211.546 226.532 211.492 226.603 211.42 226.65L210.83 226.99C210.821 227 210.809 227.009 210.796 227.015C210.783 227.021 210.769 227.024 210.755 227.024C210.741 227.024 210.727 227.021 210.714 227.015C210.701 227.009 210.69 227 210.68 226.99C210.634 226.926 210.612 226.848 210.62 226.77V220.3C210.619 220.197 210.639 220.094 210.68 220C210.705 219.917 210.758 219.846 210.83 219.8L211.42 219.46C211.43 219.449 211.441 219.441 211.454 219.435C211.467 219.429 211.481 219.426 211.495 219.426C211.509 219.426 211.523 219.429 211.536 219.435C211.549 219.441 211.561 219.449 211.57 219.46C211.615 219.528 211.636 219.609 211.63 219.69V220C211.762 219.695 211.923 219.404 212.11 219.13C212.275 218.877 212.498 218.668 212.76 218.52C212.988 218.353 213.271 218.282 213.55 218.32C213.661 218.348 213.764 218.399 213.854 218.469C213.944 218.54 214.017 218.629 214.07 218.73C214.215 219 214.31 219.295 214.35 219.6C214.404 219.998 214.43 220.398 214.43 220.8V224.51Z" fill="#FAFAFA"/>
<path d="M264.87 195.4L255.16 201L256.67 187.38C255.5 186.76 254.76 185.25 254.76 183.08C254.76 179.21 257.12 174.72 260.02 173.08C262.92 171.44 265.27 173.18 265.27 177.08C265.21 179.374 264.555 181.614 263.37 183.58L264.87 195.4Z" fill="#455A64"/>
<path d="M264.88 195.4L256.33 190.47L255.16 201.01L264.88 195.4Z" fill="#37474F"/>
<path d="M260 173.05C257.885 174.479 256.309 176.573 255.52 179L263.35 183.52C264.535 181.554 265.19 179.314 265.25 177.02C265.27 173.15 262.92 171.38 260 173.05Z" fill="#37474F"/>
<path d="M212.8 127.7C209.47 125.78 204.88 126.05 199.8 128.98C189.66 134.84 181.44 149.07 181.44 160.78C181.44 166.66 183.52 170.78 186.86 172.68L193.33 176.44C196.65 178.36 201.24 178.08 206.33 175.15C216.47 169.3 224.69 155.06 224.69 143.35C224.69 137.5 222.63 133.35 219.31 131.48" fill="#5050DB"/>
<path d="M206.32 132.75C196.18 138.61 187.96 152.85 187.96 164.55C187.96 176.25 196.18 181.01 206.32 175.15C216.46 169.29 224.69 155.06 224.68 143.35C224.67 131.64 216.45 126.9 206.32 132.75Z" fill="#5050DB"/>
<path d="M216.45 158.73V160.07C214.021 164.406 210.537 168.059 206.32 170.69C202.37 172.96 198.8 173.21 196.18 171.76V169C196.314 166.128 197.134 163.331 198.571 160.841C200.008 158.351 202.021 156.242 204.44 154.69L207.11 153.15C209.47 151.79 211.77 151.61 213.57 152.66C215.37 153.71 216.45 155.92 216.45 158.73Z" fill="#5050DB"/>
<path opacity="0.4" d="M212.8 127.7L219.3 131.48C215.98 129.55 211.39 129.82 206.3 132.75C199.66 136.59 193.84 144.02 190.62 151.98L184.11 148.21C187.34 140.21 193.11 132.82 199.79 128.98C204.89 126.06 209.48 125.78 212.8 127.7Z" fill="white"/>
<path opacity="0.2" d="M193.1 176.29L186.87 172.68C183.53 170.78 181.45 166.68 181.45 160.78L187.96 164.56C188 170.26 189.92 174.32 193.1 176.29Z" fill="black"/>
<path opacity="0.1" d="M184.13 148.21L190.64 151.98C188.972 155.965 188.076 160.231 188 164.55L181.49 160.77C181.57 156.454 182.466 152.193 184.13 148.21Z" fill="black"/>
<path d="M204 152.52C203.38 152.526 202.769 152.368 202.23 152.06C201.581 151.627 201.061 151.027 200.724 150.323C200.388 149.619 200.248 148.837 200.32 148.06C200.405 146.238 200.925 144.463 201.837 142.883C202.748 141.303 204.025 139.965 205.56 138.98C206.177 138.488 206.927 138.193 207.714 138.134C208.501 138.075 209.287 138.256 209.97 138.651C210.653 139.046 211.2 139.639 211.541 140.35C211.882 141.062 212 141.86 211.88 142.64C211.794 144.461 211.273 146.236 210.361 147.815C209.45 149.395 208.174 150.733 206.64 151.72C205.846 152.215 204.935 152.491 204 152.52Z" fill="white"/>
<path d="M213.57 152.65C211.77 151.6 209.47 151.78 207.11 153.14L204.44 154.68C202.019 156.233 200.006 158.344 198.569 160.835C197.132 163.327 196.313 166.127 196.18 169V171.77C198.8 173.22 202.37 172.97 206.32 170.7C210.537 168.069 214.021 164.416 216.45 160.08V158.74C216.45 155.92 215.41 153.71 213.57 152.65Z" fill="white"/>
<path d="M419.15 325.65C419.15 325.65 420.48 313.97 426.29 304.9C432.1 295.83 440.08 290.18 447.53 289.59C454.98 289 461 295.86 453.03 300.59C445.06 305.32 430.9 310.1 424.38 327.7L419.15 325.65Z" fill="#5050DB"/>
<path opacity="0.1" d="M419.15 325.65C419.15 325.65 420.48 313.97 426.29 304.9C432.1 295.83 440.08 290.18 447.53 289.59C454.98 289 461 295.86 453.03 300.59C445.06 305.32 430.9 310.1 424.38 327.7L419.15 325.65Z" fill="black"/>
<path d="M421.34 322.61H421.26C421.162 322.57 421.084 322.493 421.042 322.395C421.001 322.298 421 322.188 421.04 322.09C428.9 302.74 443.86 294.65 450.68 293.09C450.731 293.078 450.784 293.076 450.836 293.085C450.888 293.094 450.937 293.113 450.982 293.14C451.026 293.168 451.065 293.205 451.096 293.247C451.126 293.29 451.148 293.339 451.16 293.39C451.172 293.441 451.173 293.494 451.165 293.546C451.156 293.598 451.137 293.647 451.109 293.692C451.081 293.737 451.045 293.775 451.002 293.806C450.959 293.836 450.911 293.858 450.86 293.87C444.18 295.41 429.51 303.35 421.78 322.4C421.741 322.48 421.677 322.544 421.597 322.582C421.517 322.62 421.426 322.63 421.34 322.61Z" fill="white"/>
<path d="M461.12 322.84C460.45 324.36 458.79 325.16 457.25 325.78C455.71 326.4 454.03 327.07 453.19 328.51C451.51 331.41 454.27 335.51 452.47 338.32C452.046 338.886 451.512 339.36 450.9 339.714C450.289 340.068 449.611 340.294 448.91 340.38C447.76 340.59 446.59 340.59 445.43 340.69C444.874 340.683 444.32 340.639 443.77 340.56C442.154 340.199 440.464 340.378 438.96 341.07C436.65 342.37 435.96 345.28 434.54 347.53C433.672 348.855 432.529 349.976 431.188 350.819C429.847 351.661 428.34 352.204 426.77 352.41C425.77 352.54 423.77 352.73 422.77 352.14C422.691 352.101 422.618 352.055 422.55 352C422.4 351.84 422.22 351.63 422.14 351.52C422.135 351.497 422.135 351.473 422.14 351.45C421.73 349.94 422.4 348.38 422.43 346.82V346.54C422.36 344.73 422.31 342.93 422.27 341.13C422.183 337.797 422.15 334.463 422.17 331.13C422.17 328.97 421.93 326.61 422.85 324.58C423.85 322.34 426.37 322.29 427.32 320.1C427.7 319.22 427.9 318.29 428.27 317.4C428.842 316.106 429.757 314.994 430.918 314.184C432.078 313.375 433.438 312.9 434.85 312.81C439.24 312.59 443.17 316.14 447.56 315.81C448.69 315.72 449.8 315.37 450.92 315.17C454.47 314.5 458.58 315.51 460.58 318.52C461.019 319.14 461.298 319.858 461.392 320.612C461.486 321.366 461.393 322.131 461.12 322.84Z" fill="#5050DB"/>
<path d="M421.7 344.52C421.605 344.492 421.525 344.428 421.477 344.343C421.428 344.257 421.415 344.155 421.44 344.06C427.5 321.32 451.44 318.06 457.07 318.44C457.119 318.442 457.168 318.455 457.213 318.476C457.257 318.498 457.297 318.528 457.33 318.566C457.362 318.603 457.387 318.647 457.403 318.694C457.418 318.741 457.424 318.791 457.42 318.84C457.41 318.937 457.363 319.027 457.288 319.09C457.214 319.153 457.118 319.186 457.02 319.18C451.53 318.79 428.09 322 422.16 344.26C422.132 344.354 422.068 344.434 421.983 344.483C421.897 344.531 421.795 344.545 421.7 344.52Z" fill="white"/>
<path d="M448.33 333C448.254 332.989 448.184 332.954 448.13 332.9C445.917 330.982 443.307 329.576 440.488 328.782C437.669 327.989 434.709 327.828 431.82 328.31C431.723 328.319 431.626 328.291 431.548 328.232C431.47 328.172 431.417 328.086 431.4 327.99C431.386 327.892 431.41 327.792 431.468 327.712C431.526 327.632 431.613 327.577 431.71 327.56C434.723 327.058 437.81 327.23 440.749 328.061C443.688 328.893 446.407 330.364 448.71 332.37C448.745 332.404 448.774 332.446 448.793 332.491C448.812 332.537 448.822 332.585 448.822 332.635C448.822 332.684 448.812 332.733 448.793 332.779C448.774 332.824 448.745 332.865 448.71 332.9C448.665 332.954 448.604 332.992 448.536 333.01C448.468 333.028 448.396 333.025 448.33 333Z" fill="white"/>
<path d="M364.12 50.9998L367.3 52.2198V45.2198C367.3 39.6598 371.73 38.3298 376.54 41.1098C381.36 43.8898 385.26 50.6398 385.26 56.1998V57.1998C385.93 56.995 386.638 56.9443 387.331 57.0517C388.024 57.1591 388.683 57.4216 389.26 57.8198C391.086 59.0107 392.606 60.6158 393.696 62.5045C394.785 64.3933 395.414 66.5125 395.53 68.6898V69.1498L399.97 71.7098C401.171 72.4939 402.171 73.5497 402.888 74.7918C403.606 76.0339 404.021 77.4275 404.1 78.8598C404.1 81.4998 402.25 82.5698 399.97 81.2498L364.12 60.5398C362.918 59.7575 361.918 58.7019 361.202 57.4592C360.486 56.2166 360.074 54.8221 360 53.3898C360 50.7598 361.83 49.6898 364.12 50.9998Z" fill="#E6E6E6"/>
<path d="M406.71 45.4598L412.48 48.7898C412.449 48.5377 412.432 48.2839 412.43 48.0298V46.3598C412.43 43.3598 414.51 42.1798 417.09 43.6698C418.199 44.3486 419.147 45.2595 419.87 46.3398C420.29 42.5998 423.23 41.2098 426.79 43.2598C428.825 44.5836 430.518 46.368 431.735 48.4685C432.951 50.569 433.655 52.9264 433.79 55.3498V57.8498C433.816 58.8487 433.614 59.8404 433.2 60.7498L438 63.5098C438.748 64.006 439.369 64.6706 439.814 65.4504C440.259 66.2302 440.514 67.1034 440.56 67.9998C440.56 69.6498 439.4 70.3198 437.97 69.4998L406.71 51.4998C405.954 51.0072 405.325 50.3427 404.875 49.5606C404.425 48.7785 404.166 47.901 404.12 46.9998C404.12 45.3098 405.28 44.6398 406.71 45.4598Z" fill="#E6E6E6"/>
<path d="M384.37 197.23C380.17 204.33 376.13 210.5 373.29 213.46C367.9 215.96 355.24 219.82 350.29 220.46C349.421 220.571 348.54 220.365 347.81 219.88C345.86 218.6 344.35 218.39 342.3 217.68C340.69 217.13 340.01 216.36 339.71 216.68C339.4 217.043 339.245 217.513 339.276 217.99C339.308 218.466 339.525 218.911 339.88 219.23C340.649 219.961 341.502 220.598 342.42 221.13C340.224 221.675 337.934 221.716 335.72 221.25C331.43 220.12 329.41 222.18 332.31 226.84C333.31 228.5 337.43 231.17 345.71 230.45C348.664 230.291 351.606 229.957 354.52 229.45C362.46 227.75 371.29 226.11 376.72 224.45C378.74 223.656 380.548 222.403 382 220.79C391.13 210.38 394.16 202.96 398.16 196.22L397.82 185.22C391.34 185 387.88 191.29 384.37 197.23Z" fill="#FFA8A7"/>
<path d="M398.93 185C397.051 184.736 395.136 184.99 393.391 185.736C391.646 186.481 390.138 187.689 389.03 189.23C384.59 194.92 376.73 208.58 376.73 208.58C376.73 208.58 379.3 215.43 386.24 216.58L397.39 201.52C397.39 201.52 402.67 191.06 398.93 185Z" fill="#455A64"/>
<path d="M423.04 338.54H415.77V351.5H423.04V338.54Z" fill="#FFA8A7"/>
<path d="M397.84 337.85L390.58 338.11L390.21 324.39L397.84 324.13V337.85Z" fill="#FFA8A7"/>
<path d="M424.06 226.35C424.06 233.57 423 291.74 423 291.74C423.16 293.82 425 297.66 424.63 305.65C424.08 316.5 423.35 345.02 423.35 345.02C422.102 345.658 420.725 346.005 419.324 346.032C417.922 346.06 416.532 345.769 415.26 345.18C415.26 345.18 409.36 305.18 408.06 294.47C406.92 285.08 404 254 404 254L400.07 290.74C400.903 294.682 401.206 298.718 400.97 302.74C400.63 307.74 398.29 333.62 398.29 333.62C397.034 334.361 395.626 334.806 394.172 334.922C392.719 335.038 391.258 334.822 389.9 334.29C389.9 334.29 385.76 295.29 385.68 290.71C385.58 285.51 388.1 226.29 388.1 226.29L424.06 226.35Z" fill="#37474F"/>
<path d="M415.77 347.76V346.68C415.07 346.99 413.46 353.41 410.57 356.15C408.28 358.33 405.16 360.84 404.36 363.27C403.56 365.7 408.71 367.19 410.86 366.8C413.34 366.34 417.66 364.51 418.74 362.8C419.82 361.09 420.33 358.61 421.21 357.37C422.09 356.13 424.12 354.75 424.59 353.31C424.737 351.963 424.597 350.599 424.18 349.31C423.84 347.97 423.48 346.5 423.04 346.63V347.45C422.015 348.291 420.726 348.744 419.4 348.73C418.34 348.82 415.76 348.6 415.77 347.76Z" fill="#263238"/>
<path d="M390.5 335.77C390.12 335.77 389.81 336.34 388.98 337.28C387.746 338.578 386.303 339.66 384.71 340.48C381.99 341.9 376.71 344.08 374.3 345.21C372.8 345.91 372.87 347.79 374.42 348.86C375.97 349.93 379.7 350.7 384.18 349.66C386.62 349.09 389.8 346.74 391.82 346.87C393.84 347 397.59 346.96 399.08 345.87C400.57 344.78 399.97 342.52 399.55 340.57C399.09 338.43 398.55 335.1 397.84 335.25V336C396.97 337.38 392.46 337.94 390.54 336.93L390.5 335.77Z" fill="#263238"/>
<path d="M404 254C400.218 252.762 396.761 250.695 393.88 247.95C393.88 247.95 395.88 251.76 401.64 255.31L400.4 288.12L404 254Z" fill="#263238"/>
<path d="M420 186.06C420 186.06 426 187.44 425.57 198.28L424.32 215.53V241.43C418.98 247.49 395.32 247.05 387.17 240.95C387.17 240.95 388.09 210.3 388.64 198.5C389.03 190.12 390.96 185.9 399.2 184.98L409.33 185.42L420 186.06Z" fill="#5050DB"/>
<path d="M412.36 163.54C412.394 164.991 412.141 166.435 411.615 167.788C411.089 169.141 410.3 170.376 409.295 171.423C408.289 172.47 407.086 173.307 405.755 173.887C404.424 174.466 402.991 174.777 401.54 174.8C395.54 174.8 392.02 169.62 390.72 163.54C388.32 152.41 395.56 152.27 401.54 152.27C404.469 152.33 407.254 153.552 409.283 155.665C411.312 157.778 412.419 160.611 412.36 163.54Z" fill="#263238"/>
<path d="M417.88 168.09C417.88 168.09 416.22 176.21 415.55 177.55C415.128 178.356 414.412 178.969 413.55 179.26L413.67 173.55L417.88 168.09Z" fill="#263238"/>
<path d="M415.79 156.46C415.79 156.46 416.98 156.16 418.25 158.14C419.33 159.83 419.58 163.63 417.88 168.14L414.75 168.52L415.79 156.46Z" fill="#263238"/>
<path d="M416.94 158.11L420.78 158.18C420.806 157.932 420.781 157.681 420.706 157.443C420.63 157.205 420.507 156.985 420.342 156.797C420.178 156.61 419.976 156.458 419.751 156.351C419.525 156.245 419.279 156.187 419.03 156.18C418.505 156.187 418.001 156.389 417.616 156.745C417.23 157.101 416.989 157.587 416.94 158.11Z" fill="#263238"/>
<path d="M417.41 157.2L420.25 154.47C420.086 154.277 419.885 154.12 419.657 154.009C419.43 153.898 419.182 153.835 418.929 153.825C418.676 153.815 418.424 153.857 418.189 153.949C417.953 154.041 417.739 154.181 417.56 154.36C417.183 154.728 416.959 155.225 416.931 155.751C416.903 156.277 417.074 156.794 417.41 157.2Z" fill="#263238"/>
<path d="M413.81 168.47C414.44 168.86 415.33 167.61 416.11 166.76C416.89 165.91 419.31 165.13 420.57 167.89C421.83 170.65 419.68 173.38 417.88 174.28C414.65 175.88 413.63 173.55 413.63 173.55L413.36 186.41C408.82 193.41 398.52 193.19 402.23 186.07V182.16C400.704 182.414 399.154 182.494 397.61 182.4C395.09 182 393.51 179.93 392.74 177.09C391.52 172.53 391.05 168.85 392.09 159.88C393.23 150.06 404.21 149.95 410.09 153.88C415.97 157.81 413.81 168.47 413.81 168.47Z" fill="#FFA8A7"/>
<path d="M400.13 158.35C402.75 158.09 405.34 157.55 407.97 157.35C408.537 157.281 409.112 157.308 409.67 157.43C411.67 157.98 411.43 160.32 411.75 161.95C412.3 164.77 412.75 169.54 413.81 169.56C414.13 169.56 415.33 167.49 416.11 166.75C416.539 166.112 416.781 165.368 416.81 164.6C417.01 163.44 417.11 162.25 417.2 161.07C417.28 160.07 417.38 159.07 417.38 158.07C417.426 156.94 417.335 155.808 417.11 154.7C416.859 153.757 416.378 152.891 415.71 152.18L415.51 151.96C414.192 150.582 412.592 149.504 410.82 148.8C408.27 147.845 405.596 147.262 402.88 147.07C400.168 146.878 397.467 146.544 394.79 146.07C394.637 146.025 394.474 146.025 394.32 146.07C394.212 146.13 394.12 146.216 394.053 146.321C393.987 146.426 393.948 146.546 393.94 146.67C393.83 147.291 393.899 147.931 394.138 148.515C394.377 149.099 394.776 149.604 395.29 149.97C393.48 150.11 391.4 149.17 389.66 148.69C389.519 148.63 389.368 148.599 389.215 148.599C389.062 148.599 388.911 148.63 388.77 148.69C388.596 148.812 388.471 148.993 388.42 149.2C388.293 149.67 388.276 150.162 388.37 150.64C388.529 152.087 389.067 153.467 389.93 154.64C391.278 156.395 393.182 157.639 395.33 158.17C396.911 158.475 398.53 158.536 400.13 158.35Z" fill="#263238"/>
<path d="M402.24 182.16C402.24 182.16 407.86 180.98 409.82 179.89C410.987 179.251 411.935 178.275 412.54 177.09C412.245 178.281 411.718 179.402 410.99 180.39C409.56 182.31 402.24 183.71 402.24 183.71V182.16Z" fill="#F28F8F"/>
<path d="M403.59 167C403.579 167.309 403.691 167.609 403.901 167.836C404.111 168.062 404.401 168.197 404.71 168.21C404.955 168.23 405.2 168.176 405.414 168.054C405.628 167.932 405.799 167.749 405.907 167.528C406.015 167.307 406.053 167.059 406.017 166.815C405.981 166.572 405.872 166.346 405.705 166.165C405.538 165.985 405.321 165.859 405.081 165.804C404.842 165.75 404.591 165.769 404.362 165.859C404.134 165.949 403.938 166.106 403.8 166.31C403.662 166.514 403.589 166.754 403.59 167Z" fill="#263238"/>
<path d="M405.39 162.15L407.8 163.54C407.975 163.197 408.015 162.801 407.911 162.43C407.808 162.06 407.568 161.742 407.24 161.54C407.08 161.45 406.904 161.395 406.721 161.377C406.539 161.36 406.355 161.38 406.181 161.437C406.007 161.495 405.847 161.588 405.71 161.711C405.574 161.833 405.465 161.983 405.39 162.15Z" fill="#263238"/>
<path d="M402.74 175.11L400.17 176.11C400.222 176.286 400.309 176.45 400.427 176.591C400.544 176.732 400.69 176.847 400.854 176.93C401.018 177.013 401.197 177.06 401.381 177.071C401.564 177.081 401.748 177.053 401.92 176.99C402.27 176.839 402.549 176.561 402.701 176.212C402.854 175.863 402.867 175.469 402.74 175.11Z" fill="#F28F8F"/>
<path d="M393.25 163.18L395.45 161.42C395.352 161.266 395.222 161.135 395.069 161.035C394.916 160.935 394.744 160.868 394.564 160.839C394.384 160.81 394.2 160.819 394.023 160.865C393.847 160.912 393.682 160.995 393.54 161.11C393.246 161.359 393.054 161.708 393.001 162.09C392.947 162.471 393.036 162.859 393.25 163.18Z" fill="#263238"/>
<path d="M394.22 166.67C394.237 166.889 394.318 167.098 394.452 167.271C394.587 167.445 394.769 167.576 394.976 167.648C395.184 167.72 395.407 167.729 395.62 167.676C395.833 167.623 396.026 167.509 396.175 167.348C396.324 167.187 396.423 166.986 396.46 166.769C396.497 166.553 396.47 166.331 396.382 166.129C396.295 165.928 396.151 165.757 395.967 165.636C395.784 165.515 395.569 165.451 395.35 165.45C395.195 165.455 395.043 165.491 394.903 165.555C394.762 165.619 394.635 165.711 394.53 165.824C394.425 165.938 394.344 166.071 394.29 166.216C394.237 166.361 394.213 166.515 394.22 166.67Z" fill="#263238"/>
<path d="M400.25 165.73L400.12 172.84L396.08 171.92L400.25 165.73Z" fill="#F28F8F"/>
<path d="M304.31 225.28L310.58 221.66L313.06 218.65L306.8 222.27L304.31 225.28Z" fill="#5050DB"/>
<path opacity="0.4" d="M304.31 225.28L310.58 221.66L313.06 218.65L306.8 222.27L304.31 225.28Z" fill="black"/>
<path d="M321.36 235.12L327.63 231.5L332.86 226.87L326.6 230.48L321.36 235.12Z" fill="#5050DB"/>
<path opacity="0.4" d="M321.36 235.12L327.63 231.5L332.86 226.87L326.6 230.48L321.36 235.12Z" fill="black"/>
<path d="M374.62 247.61C376.102 249.597 376.999 251.96 377.21 254.43C375.734 252.439 374.837 250.079 374.62 247.61ZM389.19 247.8C387.08 233.45 379.37 219.26 370.19 213.95C365.78 211.4 361.7 211.31 358.43 213.22L352.53 216.62L352.2 216.82C351.937 216.965 351.683 217.125 351.44 217.3C350.955 217.634 350.5 218.008 350.08 218.42L349.88 218.61C349.7 218.79 349.51 219 349.34 219.2C349.17 219.4 348.91 219.71 348.71 219.98C348.285 220.539 347.901 221.127 347.56 221.74C347.38 222.05 347.21 222.38 347.05 222.74L295.52 193L289.26 196.61V200.61L289.79 200.91L290.29 201.2V202L289.29 202.59V204.91L296.86 220.91L304.34 225.24L306.83 222.24L313.43 226.19L317.22 232.68L321.4 235.09L326.63 230.45L333.05 234.16L335.21 243.07L346 249.31C346.533 251.578 347.201 253.812 348 256C348.07 256.22 348.16 256.45 348.25 256.7C351.83 266.1 357.52 274.15 363.94 277.86C364.709 278.316 365.515 278.708 366.35 279.03C366.791 279.205 367.242 279.356 367.7 279.48C368.1 279.587 368.5 279.677 368.9 279.75C370.163 279.98 371.457 279.98 372.72 279.75L373.24 279.62C373.488 279.57 373.733 279.5 373.97 279.41L374.53 279.19C374.728 279.118 374.919 279.028 375.1 278.92C375.285 278.84 375.465 278.75 375.64 278.65L375.9 278.49C375.947 278.475 375.991 278.451 376.03 278.42C377.46 277.6 380.98 275.56 381.94 275.02C386.7 272.26 389.78 265.28 389.78 255.41C389.772 252.862 389.575 250.319 389.19 247.8Z" fill="#5050DB"/>
<path d="M372.79 259.72C370.31 258.29 368.31 254.05 368.31 250.25C368.31 246.45 370.31 244.52 372.79 245.94C375.27 247.36 377.26 251.61 377.26 255.42C377.26 259.23 375.26 261.15 372.79 259.72ZM382.92 251.41C380.82 237.07 373.11 222.87 363.92 217.57C359.66 215.11 355.72 214.93 352.52 216.62L352.19 216.82C351.927 216.964 351.673 217.125 351.43 217.3C350.945 217.633 350.49 218.008 350.07 218.42L349.87 218.61C349.69 218.79 349.5 219 349.33 219.2C349.16 219.4 348.9 219.71 348.7 219.98C348.276 220.539 347.891 221.127 347.55 221.74C347.37 222.05 347.2 222.38 347.04 222.74C346.108 224.673 345.435 226.721 345.04 228.83L289.25 196.61V200.61L289.78 200.91L290.28 201.2V202L289.28 202.59V204.91L296.85 220.91L304.33 225.24L306.82 222.24L313.42 226.19L317.21 232.68L321.39 235.09L326.62 230.45L333.04 234.16L335.2 243.07L346 249.31C346.533 251.578 347.201 253.812 348 256C348.07 256.22 348.16 256.45 348.25 256.7C351.83 266.1 357.52 274.15 363.94 277.86C364.709 278.316 365.516 278.708 366.35 279.03C366.791 279.205 367.242 279.356 367.7 279.48C368.1 279.587 368.5 279.677 368.9 279.75C370.163 279.98 371.457 279.98 372.72 279.75L373.24 279.62C373.489 279.57 373.733 279.5 373.97 279.41L374.53 279.19C374.728 279.118 374.919 279.028 375.1 278.92C375.285 278.84 375.465 278.75 375.64 278.65L375.9 278.49C375.947 278.474 375.991 278.451 376.03 278.42C380.59 275.54 383.52 268.66 383.52 259.03C383.503 256.479 383.303 253.932 382.92 251.41Z" fill="#5050DB"/>
<path opacity="0.4" d="M377.26 255.41C377.26 259.22 375.26 261.15 372.79 259.72C370.32 258.29 368.31 254.06 368.31 250.25C368.31 246.44 370.31 244.51 372.79 245.94C373.504 246.375 374.126 246.945 374.62 247.62C374.835 250.089 375.732 252.45 377.21 254.44C377.247 254.762 377.263 255.086 377.26 255.41Z" fill="black"/>
<path opacity="0.4" d="M389.76 255.4C389.76 265.27 386.68 272.25 381.92 275.01C380.92 275.55 377.44 277.59 376.01 278.41C380.57 275.53 383.5 268.65 383.5 259.02C383.489 256.473 383.296 253.929 382.92 251.41C380.82 237.07 373.11 222.87 363.92 217.57C359.66 215.11 355.72 214.93 352.52 216.62L358.42 213.22C361.69 211.31 365.77 211.4 370.18 213.95C379.37 219.26 387.08 233.45 389.18 247.8C389.561 250.315 389.755 252.856 389.76 255.4Z" fill="white"/>
<path d="M383.5 259C383.5 268.63 380.57 275.51 376.01 278.39C377.44 277.57 380.96 275.53 381.92 274.99C386.68 272.23 389.76 265.25 389.76 255.38C389.76 255.02 389.76 254.65 389.76 254.28L383.5 257.9C383.49 258.29 383.5 258.65 383.5 259Z" fill="#5050DB"/>
<path opacity="0.1" d="M383.5 259C383.5 268.63 380.57 275.51 376.01 278.39C377.44 277.57 380.96 275.53 381.92 274.99C386.68 272.23 389.76 265.25 389.76 255.38C389.76 255.02 389.76 254.65 389.76 254.28L383.5 257.9C383.49 258.29 383.5 258.65 383.5 259Z" fill="black"/>
<path opacity="0.15" d="M345.28 232.92V234.95L289.26 202.61L290.29 202.01V201.17L345.28 232.92Z" fill="black"/>
<path opacity="0.15" d="M345.28 233.76V234.95L289.26 202.61L290.29 202.01V202L345.28 233.76Z" fill="black"/>
<path opacity="0.15" d="M369.64 275C367.517 274.945 365.446 274.327 363.64 273.21C354.51 267.94 347.08 252.26 347.08 238.26C347.08 230.09 349.55 223.99 353.86 221.5C356.86 219.76 360.41 219.98 364.14 222.13C373.26 227.4 380.69 243.13 380.69 257.13C380.69 265.29 378.22 271.4 373.91 273.88C372.61 274.622 371.137 275.009 369.64 275ZM358.19 221.35C356.857 221.343 355.546 221.688 354.39 222.35C350.46 224.62 348.11 230.57 348.11 238.25C348.11 251.93 355.31 267.25 364.17 272.33C367.56 274.33 370.77 274.51 373.44 272.97C377.37 270.7 379.72 264.76 379.72 257.08C379.72 243.39 372.52 228.08 363.67 222.99C362.016 221.984 360.126 221.432 358.19 221.39V221.35Z" fill="black"/>
<path opacity="0.4" d="M347 222.72C346.068 224.653 345.395 226.701 345 228.81L289.21 196.59L295.47 192.98L347 222.72Z" fill="white"/>
<path d="M419.51 225.85C422.43 220.32 425.77 207.9 427.43 201.63C429.79 192.73 425.97 187.13 421.63 186.9C418.92 187.32 409.99 219.79 409.99 219.79C408.99 220.58 395.42 227.47 391.06 229.2C390.281 229.495 389.42 229.495 388.64 229.2C386.55 228.44 385.12 228.58 383.07 228.38C381.46 228.22 380.65 227.65 380.44 227.99C380.25 228.412 380.225 228.89 380.371 229.33C380.518 229.769 380.824 230.137 381.23 230.36C382.113 230.874 383.053 231.283 384.03 231.58C382.278 232.112 380.451 232.358 378.62 232.31C374.42 232.22 372.91 234.04 376.17 238.31C378.17 240.97 381.48 241.81 388.87 239.26C390.99 238.52 393.87 237.09 396.56 236.12C402.1 234.12 403.56 233.88 407.78 232.45C413.93 230.37 418.21 228.31 419.51 225.85Z" fill="#FFA8A7"/>
<path d="M420 186.06C422.55 186.41 425 186.98 426.51 189.06C428.02 191.14 429.23 194.06 427.75 202.01C426.617 207.601 425.1 213.107 423.21 218.49C423.21 218.49 417.27 221.03 410.96 214.59L415.3 197.81C415.3 197.81 416 186.9 420 186.06Z" fill="#455A64"/>
</g>
<defs>
<clipPath id="clip0_502_720">
<rect width="472" height="458" fill="white"/>
</clipPath>
</defs>
</svg>
